<svg width="366" height="102" viewBox="0 0 366 102" fill="none" xmlns="http://www.w3.org/2000/svg">
<path d="M33.9109 99.8521V70.3472H55.2493C75.0071 70.3472 85.808 57.0436 85.808 41.2374C85.808 25.2995 75.0071 11.9959 55.2493 11.9959H11.2554V99.8521H33.9109ZM52.2198 50.5894H33.9109V31.7537H52.2198C58.2789 31.7537 62.7573 35.1783 62.7573 41.2374C62.7573 47.1647 58.2789 50.5894 52.2198 50.5894Z" fill="#FCA311"/>
<path d="M120.34 76.4062V59.4145H88.7274V76.4062H120.34Z" fill="#FCA311"/>
<path d="M191.969 99.8521V83.7825H202.638V63.893H191.969V11.9959H160.488L127.163 66.1322V83.7825H169.182V99.8521H191.969ZM169.182 63.893H149.16L169.182 31.7537V63.893Z" fill="#FCA311"/>
<path d="M246.528 101.433C272.213 101.433 284.2 79.1723 284.2 55.9899C284.2 32.8074 272.213 10.6787 246.528 10.6787C220.843 10.6787 208.857 32.8074 208.857 55.9899C208.857 79.1723 220.843 101.433 246.528 101.433ZM246.528 81.4115C235.991 81.4115 231.776 71.5326 231.776 55.9899C231.776 40.4471 235.991 30.6999 246.528 30.6999C257.066 30.6999 261.281 40.4471 261.281 55.9899C261.281 71.5326 257.066 81.4115 246.528 81.4115Z" fill="#FCA311"/>
<path d="M355.331 99.8521V83.7825H366V63.893H355.331V11.9959H323.85L290.525 66.1322V83.7825H332.543V99.8521H355.331ZM332.543 63.893H312.522L332.543 31.7537V63.893Z" fill="#FCA311"/>
<path d="M24.6556 91.9734H25.4556V91.1734V62.4685H45.994C56.0605 62.4685 63.9162 59.0745 69.2552 53.5994C74.5885 48.1303 77.3527 40.6438 77.3527 32.5587C77.3527 24.4094 74.5896 16.8899 69.2561 11.4036C63.9168 5.91125 56.0606 2.51718 45.994 2.51718H2H1.2V3.31718V91.1734V91.9734H2H24.6556ZM111.085 68.5275H111.885V67.7275V50.7358V49.9358H111.085H79.4721H78.6721V50.7358V67.7275V68.5275H79.4721H111.085ZM182.714 91.9734H183.514V91.1734V75.9037H193.383H194.183V75.1037V55.2143V54.4143H193.383H183.514V3.31718V2.51718H182.714H151.233H150.786L150.552 2.89781L117.227 57.0341L117.108 57.227V57.4535V75.1037V75.9037H117.908H159.126V91.1734V91.9734H159.926H182.714ZM346.075 91.9734H346.875V91.1734V75.9037H356.745H357.545V75.1037V55.2143V54.4143H356.745H346.875V3.31718V2.51718H346.075H314.595H314.148L313.913 2.89781L280.589 57.0341L280.47 57.227V57.4535V75.1037V75.9037H281.27H322.488V91.1734V91.9734H323.288H346.075ZM42.9644 41.1107H25.4556V23.875H42.9644C45.8494 23.875 48.2839 24.69 49.9838 26.1513C51.6691 27.6001 52.7019 29.7419 52.7019 32.5587C52.7019 35.3041 51.6732 37.4133 49.9869 38.8482C48.2858 40.2956 45.8495 41.1107 42.9644 41.1107ZM159.126 54.4143H141.346L159.126 25.8722V54.4143ZM237.273 93.554C250.38 93.554 260.034 87.8595 266.386 79.1991C272.718 70.5662 275.744 59.0267 275.744 47.3111C275.744 35.5955 272.717 24.0883 266.385 15.4878C260.032 6.86002 250.378 1.2 237.273 1.2C224.168 1.2 214.514 6.86002 208.161 15.4878C201.828 24.0883 198.801 35.5955 198.801 47.3111C198.801 59.0267 201.828 70.5662 208.16 79.1991C214.512 87.8595 224.166 93.554 237.273 93.554ZM237.273 71.9328C234.768 71.9328 232.68 71.3475 230.945 70.2673C229.208 69.1856 227.782 67.5796 226.65 65.4719C224.372 61.233 223.32 55.036 223.32 47.3111C223.32 39.586 224.372 33.4233 226.649 29.2185C227.78 27.1281 229.205 25.5383 230.942 24.4681C232.676 23.3993 234.766 22.8212 237.273 22.8212C239.779 22.8212 241.869 23.3993 243.604 24.4681C245.34 25.5383 246.765 27.1281 247.897 29.2185C250.173 33.4233 251.225 39.586 251.225 47.3111C251.225 55.036 250.174 61.233 247.896 65.4719C246.763 67.5796 245.337 69.1856 243.601 70.2673C241.866 71.3475 239.777 71.9328 237.273 71.9328ZM322.488 54.4143H304.708L322.488 25.8722V54.4143Z" fill="white" stroke="#FCA311" stroke-width="1.6"/>
</svg>
