<svg width="3014" height="1485" viewBox="0 0 3014 1485" fill="none" xmlns="http://www.w3.org/2000/svg">
<g clip-path="url(#clip0)">
<rect width="1920" height="1080" fill="#221E38"/>
<circle cx="4.54976" cy="538" r="4.54976" fill="white" fill-opacity="0.1"/>
<circle cx="4.54976" cy="283.213" r="4.54976" fill="white" fill-opacity="0.1"/>
<circle cx="4.54976" cy="792.787" r="4.54976" fill="white" fill-opacity="0.1"/>
<circle cx="4.54976" cy="1047.57" r="4.54976" fill="white" fill-opacity="0.1"/>
<circle cx="4.54976" cy="155.82" r="4.54976" fill="white" fill-opacity="0.1"/>
<circle cx="4.54976" cy="665.393" r="4.54976" fill="white" fill-opacity="0.1"/>
<circle cx="4.54976" cy="410.607" r="4.54976" fill="white" fill-opacity="0.1"/>
<circle cx="4.54976" cy="920.181" r="4.54976" fill="white" fill-opacity="0.1"/>
<circle cx="1023.7" cy="28.4267" r="4.54976" fill="white" fill-opacity="0.1"/>
<circle cx="1023.7" cy="538" r="4.54976" fill="white" fill-opacity="0.5"/>
<circle cx="1023.7" cy="283.213" r="4.54976" fill="white" fill-opacity="0.1"/>
<circle cx="1023.7" cy="792.787" r="4.54976" fill="white" fill-opacity="0.1"/>
<circle cx="1023.7" cy="1047.57" r="4.54976" fill="white" fill-opacity="0.1"/>
<circle cx="1023.7" cy="155.82" r="4.54976" fill="white"/>
<circle cx="1023.7" cy="665.393" r="4.54976" fill="white" fill-opacity="0.1"/>
<circle cx="1023.7" cy="410.607" r="4.54976" fill="white" fill-opacity="0.1"/>
<circle cx="1023.7" cy="920.181" r="4.54976" fill="white" fill-opacity="0.1"/>
<circle cx="514.123" cy="28.4267" r="4.54976" fill="white" fill-opacity="0.1"/>
<circle cx="514.123" cy="538" r="4.54976" fill="white" fill-opacity="0.1"/>
<circle cx="514.123" cy="283.213" r="4.54976" fill="white" fill-opacity="0.1"/>
<circle cx="514.123" cy="792.787" r="4.54976" fill="white" fill-opacity="0.1"/>
<circle cx="514.123" cy="1047.57" r="4.54976" fill="white" fill-opacity="0.1"/>
<circle cx="514.123" cy="155.82" r="4.54976" fill="white" fill-opacity="0.1"/>
<circle cx="514.123" cy="665.393" r="4.54976" fill="white"/>
<circle cx="514.123" cy="410.607" r="4.54976" fill="white" fill-opacity="0.1"/>
<circle cx="514.123" cy="920.181" r="4.54976" fill="white" fill-opacity="0.1"/>
<circle cx="1533.27" cy="28.4267" r="4.54976" fill="white"/>
<circle cx="1533.27" cy="538" r="4.54976" fill="white" fill-opacity="0.1"/>
<circle cx="1533.27" cy="283.213" r="4.54976" fill="white" fill-opacity="0.1"/>
<circle cx="1533.27" cy="792.787" r="4.54976" fill="white" fill-opacity="0.1"/>
<circle cx="1533.27" cy="1047.57" r="4.54976" fill="white" fill-opacity="0.1"/>
<circle cx="1533.27" cy="155.82" r="4.54976" fill="white" fill-opacity="0.1"/>
<circle cx="1533.27" cy="665.393" r="4.54976" fill="white" fill-opacity="0.1"/>
<circle cx="1533.27" cy="410.607" r="4.54976" fill="white" fill-opacity="0.1"/>
<circle cx="1533.27" cy="920.181" r="4.54976" fill="white" fill-opacity="0.1"/>
<circle cx="259.336" cy="28.4267" r="4.54976" fill="white" fill-opacity="0.1"/>
<circle cx="259.336" cy="538" r="4.54976" fill="white" fill-opacity="0.1"/>
<circle cx="259.336" cy="283.213" r="4.54976" fill="white" fill-opacity="0.1"/>
<circle cx="259.336" cy="792.787" r="4.54976" fill="white" fill-opacity="0.1"/>
<circle cx="259.336" cy="1047.57" r="4.54976" fill="white" fill-opacity="0.1"/>
<circle cx="259.336" cy="155.82" r="4.54976" fill="white" fill-opacity="0.5"/>
<circle cx="259.336" cy="665.393" r="4.54976" fill="white" fill-opacity="0.1"/>
<circle cx="259.336" cy="410.607" r="4.54976" fill="white" fill-opacity="0.1"/>
<circle cx="259.336" cy="920.181" r="4.54976" fill="white" fill-opacity="0.1"/>
<circle cx="1278.48" cy="28.4267" r="4.54976" fill="white" fill-opacity="0.1"/>
<circle cx="1278.48" cy="538" r="4.54976" fill="white" fill-opacity="0.1"/>
<circle cx="1278.48" cy="283.213" r="4.54976" fill="white" fill-opacity="0.1"/>
<circle cx="1278.48" cy="792.787" r="4.54976" fill="white" fill-opacity="0.1"/>
<circle cx="1278.48" cy="1047.57" r="4.54976" fill="white" fill-opacity="0.1"/>
<circle cx="1278.48" cy="155.82" r="4.54976" fill="white" fill-opacity="0.1"/>
<circle cx="1278.48" cy="665.393" r="4.54976" fill="white" fill-opacity="0.1"/>
<circle cx="1278.48" cy="410.607" r="4.54976" fill="white" fill-opacity="0.5"/>
<circle cx="1278.48" cy="920.181" r="4.54976" fill="white" fill-opacity="0.5"/>
<circle cx="768.91" cy="28.4267" r="4.54976" fill="white" fill-opacity="0.1"/>
<circle cx="768.91" cy="538" r="4.54976" fill="white" fill-opacity="0.1"/>
<circle cx="768.91" cy="283.213" r="4.54976" fill="white" fill-opacity="0.1"/>
<circle cx="768.91" cy="792.787" r="4.54976" fill="white" fill-opacity="0.1"/>
<circle cx="768.91" cy="1047.57" r="4.54976" fill="white" fill-opacity="0.1"/>
<circle cx="768.91" cy="155.82" r="4.54976" fill="white" fill-opacity="0.1"/>
<circle cx="768.91" cy="665.393" r="4.54976" fill="white" fill-opacity="0.1"/>
<circle cx="768.91" cy="410.607" r="4.54976" fill="white" fill-opacity="0.1"/>
<circle cx="768.91" cy="920.181" r="4.54976" fill="white" fill-opacity="0.5"/>
<circle cx="1788.06" cy="28.4267" r="4.54976" fill="white" fill-opacity="0.5"/>
<circle cx="1788.06" cy="538" r="4.54976" fill="white" fill-opacity="0.1"/>
<circle cx="1788.06" cy="283.213" r="4.54976" fill="white" fill-opacity="0.1"/>
<circle cx="1788.06" cy="792.787" r="4.54976" fill="white" fill-opacity="0.1"/>
<circle cx="1788.06" cy="1047.57" r="4.54976" fill="white" fill-opacity="0.1"/>
<circle cx="1788.06" cy="155.82" r="4.54976" fill="white" fill-opacity="0.1"/>
<circle cx="1788.06" cy="665.393" r="4.54976" fill="white" fill-opacity="0.1"/>
<circle cx="1788.06" cy="410.607" r="4.54976" fill="white"/>
<circle cx="1788.06" cy="920.181" r="4.54976" fill="white"/>
<circle cx="131.943" cy="28.4267" r="4.54976" fill="white" fill-opacity="0.1"/>
<circle cx="4.54976" cy="28.4267" r="4.54976" fill="white" fill-opacity="0.1"/>
<circle cx="131.943" cy="538" r="4.54976" fill="white"/>
<circle cx="131.943" cy="283.213" r="4.54976" fill="white" fill-opacity="0.1"/>
<circle cx="131.943" cy="792.787" r="4.54976" fill="white" fill-opacity="0.1"/>
<circle cx="131.943" cy="1047.57" r="4.54976" fill="white" fill-opacity="0.1"/>
<circle cx="131.943" cy="155.82" r="4.54976" fill="white" fill-opacity="0.1"/>
<circle cx="131.943" cy="665.393" r="4.54976" fill="white" fill-opacity="0.1"/>
<circle cx="131.943" cy="410.607" r="4.54976" fill="white" fill-opacity="0.1"/>
<circle cx="131.943" cy="920.181" r="4.54976" fill="white" fill-opacity="0.5"/>
<circle cx="1151.09" cy="28.4267" r="4.54976" fill="white" fill-opacity="0.1"/>
<circle cx="1151.09" cy="538" r="4.54976" fill="white" fill-opacity="0.1"/>
<circle cx="1151.09" cy="283.213" r="4.54976" fill="white" fill-opacity="0.1"/>
<circle cx="1151.09" cy="792.787" r="4.54976" fill="white" fill-opacity="0.1"/>
<circle cx="1151.09" cy="1047.57" r="4.54976" fill="white" fill-opacity="0.1"/>
<circle cx="1151.09" cy="155.82" r="4.54976" fill="white" fill-opacity="0.1"/>
<circle cx="1151.09" cy="665.393" r="4.54976" fill="white" fill-opacity="0.1"/>
<circle cx="1151.09" cy="410.607" r="4.54976" fill="white" fill-opacity="0.1"/>
<circle cx="1151.09" cy="920.181" r="4.54976" fill="white" fill-opacity="0.1"/>
<circle cx="641.517" cy="28.4267" r="4.54976" fill="white" fill-opacity="0.1"/>
<circle cx="641.517" cy="538" r="4.54976" fill="white" fill-opacity="0.1"/>
<circle cx="641.517" cy="283.213" r="4.54976" fill="white" fill-opacity="0.5"/>
<circle cx="641.517" cy="792.787" r="4.54976" fill="white" fill-opacity="0.1"/>
<circle cx="641.517" cy="1047.57" r="4.54976" fill="white" fill-opacity="0.1"/>
<circle cx="641.517" cy="155.82" r="4.54976" fill="white" fill-opacity="0.1"/>
<circle cx="641.517" cy="665.393" r="4.54976" fill="white" fill-opacity="0.1"/>
<circle cx="641.517" cy="410.607" r="4.54976" fill="white" fill-opacity="0.1"/>
<circle cx="641.517" cy="920.181" r="4.54976" fill="white" fill-opacity="0.1"/>
<circle cx="1660.66" cy="28.4267" r="4.54976" fill="white" fill-opacity="0.1"/>
<circle cx="1660.66" cy="538" r="4.54976" fill="white" fill-opacity="0.1"/>
<circle cx="1660.66" cy="283.213" r="4.54976" fill="white" fill-opacity="0.1"/>
<circle cx="1660.66" cy="792.787" r="4.54976" fill="white" fill-opacity="0.1"/>
<circle cx="1660.66" cy="1047.57" r="4.54976" fill="white" fill-opacity="0.1"/>
<circle cx="1660.66" cy="155.82" r="4.54976" fill="white" fill-opacity="0.1"/>
<circle cx="1660.66" cy="665.393" r="4.54976" fill="white" fill-opacity="0.1"/>
<circle cx="1660.66" cy="410.607" r="4.54976" fill="white" fill-opacity="0.1"/>
<circle cx="1660.66" cy="920.181" r="4.54976" fill="white" fill-opacity="0.1"/>
<circle cx="386.73" cy="28.4267" r="4.54976" fill="white" fill-opacity="0.1"/>
<circle cx="386.73" cy="538" r="4.54976" fill="white" fill-opacity="0.1"/>
<circle cx="386.73" cy="283.213" r="4.54976" fill="white" fill-opacity="0.1"/>
<circle cx="386.73" cy="792.787" r="4.54976" fill="white" fill-opacity="0.1"/>
<circle cx="386.73" cy="1047.57" r="4.54976" fill="white" fill-opacity="0.1"/>
<circle cx="386.73" cy="155.82" r="4.54976" fill="white" fill-opacity="0.1"/>
<circle cx="386.73" cy="665.393" r="4.54976" fill="white" fill-opacity="0.1"/>
<circle cx="386.73" cy="410.607" r="4.54976" fill="white" fill-opacity="0.1"/>
<circle cx="386.73" cy="920.181" r="4.54976" fill="white" fill-opacity="0.1"/>
<circle cx="1405.88" cy="28.4267" r="4.54976" fill="white" fill-opacity="0.1"/>
<circle cx="1405.88" cy="538" r="4.54976" fill="white" fill-opacity="0.1"/>
<circle cx="1405.88" cy="283.213" r="4.54976" fill="white" fill-opacity="0.1"/>
<circle cx="1405.88" cy="792.787" r="4.54976" fill="white" fill-opacity="0.1"/>
<circle cx="1405.88" cy="1047.57" r="4.54976" fill="white" fill-opacity="0.1"/>
<circle cx="1405.88" cy="155.82" r="4.54976" fill="white" fill-opacity="0.1"/>
<circle cx="1405.88" cy="665.393" r="4.54976" fill="white" fill-opacity="0.5"/>
<circle cx="1405.88" cy="410.607" r="4.54976" fill="white" fill-opacity="0.1"/>
<circle cx="1405.88" cy="920.181" r="4.54976" fill="white" fill-opacity="0.1"/>
<circle cx="896.303" cy="28.4267" r="4.54976" fill="white" fill-opacity="0.1"/>
<circle cx="896.303" cy="538" r="4.54976" fill="white" fill-opacity="0.1"/>
<circle cx="896.303" cy="283.213" r="4.54976" fill="white" fill-opacity="0.1"/>
<circle cx="896.303" cy="792.787" r="4.54976" fill="white" fill-opacity="0.1"/>
<circle cx="896.303" cy="1047.57" r="4.54976" fill="white" fill-opacity="0.1"/>
<circle cx="896.303" cy="155.82" r="4.54976" fill="white" fill-opacity="0.1"/>
<circle cx="896.303" cy="665.393" r="4.54976" fill="white" fill-opacity="0.1"/>
<circle cx="896.303" cy="410.607" r="4.54976" fill="white" fill-opacity="0.1"/>
<circle cx="896.303" cy="920.181" r="4.54976" fill="white" fill-opacity="0.1"/>
<circle cx="1915.45" cy="28.4267" r="4.54976" fill="white" fill-opacity="0.1"/>
<circle cx="1915.45" cy="538" r="4.54976" fill="white" fill-opacity="0.1"/>
<circle cx="1915.45" cy="283.213" r="4.54976" fill="white" fill-opacity="0.1"/>
<circle cx="1915.45" cy="792.787" r="4.54976" fill="white" fill-opacity="0.1"/>
<circle cx="1915.45" cy="1047.57" r="4.54976" fill="white" fill-opacity="0.1"/>
<circle cx="1915.45" cy="155.82" r="4.54976" fill="white" fill-opacity="0.1"/>
<circle cx="1915.45" cy="665.393" r="4.54976" fill="white" fill-opacity="0.1"/>
<circle cx="1915.45" cy="410.607" r="4.54976" fill="white" fill-opacity="0.1"/>
<circle cx="1915.45" cy="920.181" r="4.54976" fill="white" fill-opacity="0.1"/>
<path fill-rule="evenodd" clip-rule="evenodd" d="M2361.12 12.2689C2344.62 9.52602 2303.37 28.7672 2300.63 45.2655C2297.89 59.0209 2304.75 63.1455 2314.38 70.0129C2321.25 74.1375 2335.01 81.0049 2343.26 83.7684C2369.39 96.1421 2381.76 82.3867 2392.75 60.4027C2411.99 23.2609 2389.99 24.6426 2361.12 12.2689Z" fill="#4B43E2"/>
<path fill-rule="evenodd" clip-rule="evenodd" d="M2381.64 20.0437C2378.15 26.9318 2370.66 32.8918 2363.26 28.0454C2357.75 24.4364 2356.13 17.5277 2358.62 12.0214C2353.14 11.7946 2345.79 13.3825 2338.16 16.1254C2342.33 20.6005 2346.33 26.9524 2342.21 30.9326C2334.66 38.2125 2325.91 31.0151 2322.16 23.4465C2311 29.7365 2301.85 37.7794 2300.61 45.2449C2297.87 59.0004 2304.73 63.1249 2314.36 69.9924C2318.82 72.6527 2326.12 76.4679 2332.99 79.582C2336.9 73.9519 2343.36 69.9511 2350.37 73.6838C2355.96 76.6535 2357.8 82.3661 2357.51 88.1817C2370.87 89.7903 2379.72 82.3455 2387.18 70.4048C2381.8 66.9402 2377.74 62.1556 2380.48 55.1232C2383.24 47.9877 2391.39 46.3791 2397.87 48.8745C2404.11 30.912 2395.95 25.5088 2381.64 20.0437ZM2312.59 54.8758C2308.36 57.7217 2304.57 51.8442 2305.19 47.5134C2305.21 47.3484 2305.25 47.2041 2305.27 47.0391C2305.35 46.6679 2305.48 46.3173 2305.64 45.9873C2306.4 44.3787 2308.03 43.2857 2310.86 43.4713C2311.31 43.492 2311.6 43.7807 2311.75 44.1106C2312.08 44.2344 2312.41 44.3581 2312.73 44.5437C2316.8 46.8947 2316.34 52.3598 2312.59 54.8758ZM2341.15 62.0113C2341.07 62.3206 2340.89 62.6093 2340.51 62.7537C2334.18 65.1872 2326.78 68.3013 2321.42 61.9701C2317.56 57.4124 2316.45 50.5656 2319.99 45.4099C2327.03 35.2016 2345.17 37.8207 2346.35 51.2668C2346.76 55.9688 2344.49 59.7428 2341.15 62.0113ZM2359.76 56.6906C2354.87 55.1851 2351.88 49.6376 2352.06 44.7087C2352.21 40.4397 2354.5 37.5113 2357.98 36.4389C2358 36.4183 2358.02 36.3977 2358.04 36.3977C2364.87 32.7474 2372.4 38.3156 2372.44 45.8223C2372.46 51.8236 2366.21 58.6704 2359.76 56.6906ZM2368.48 79.8294C2365.18 79.7882 2362.91 77.231 2363.3 73.9313C2363.59 71.5597 2365.12 69.8892 2367.1 69.1468C2367.16 68.8375 2367.39 68.5694 2367.8 68.5075C2371.16 67.9919 2374.42 69.7655 2374.52 73.457C2374.6 76.8804 2372.01 79.8707 2368.48 79.8294ZM2385.29 41.2647C2382.32 40.5635 2380.52 37.5526 2381.31 34.5829C2381.76 32.933 2382.77 31.8194 2384.07 31.2626C2384.23 31.0357 2384.48 30.8707 2384.83 30.8295C2385.18 30.7882 2385.55 30.8089 2385.9 30.8295C2386.65 30.7882 2387.43 30.8914 2388.21 31.1182C2388.57 31.2213 2388.77 31.4688 2388.85 31.7369C2390.5 32.6856 2391.74 34.3148 2391.84 36.3977C2392.03 39.986 2388.59 42.0277 2385.29 41.2647Z" fill="#3185FC"/>
<path fill-rule="evenodd" clip-rule="evenodd" d="M2461.12 112.269C2444.62 109.526 2403.37 128.767 2400.63 145.265C2397.89 159.021 2404.75 163.146 2414.38 170.013C2421.25 174.138 2435.01 181.005 2443.26 183.768C2469.39 196.142 2481.76 182.387 2492.75 160.403C2511.99 123.261 2489.99 124.643 2461.12 112.269Z" fill="#FF0081"/>
<path fill-rule="evenodd" clip-rule="evenodd" d="M2481.64 120.044C2478.15 126.932 2470.66 132.892 2463.26 128.045C2457.75 124.436 2456.13 117.528 2458.62 112.021C2453.14 111.795 2445.79 113.383 2438.16 116.125C2442.33 120.601 2446.33 126.952 2442.21 130.933C2434.66 138.212 2425.91 131.015 2422.16 123.446C2411 129.736 2401.85 137.779 2400.61 145.245C2397.87 159 2404.73 163.125 2414.36 169.992C2418.82 172.653 2426.12 176.468 2432.99 179.582C2436.9 173.952 2443.36 169.951 2450.37 173.684C2455.96 176.654 2457.8 182.366 2457.51 188.182C2470.87 189.79 2479.72 182.345 2487.18 170.405C2481.8 166.94 2477.74 162.156 2480.48 155.123C2483.24 147.988 2491.39 146.379 2497.87 148.875C2504.11 130.912 2495.95 125.509 2481.64 120.044ZM2412.59 154.876C2408.36 157.722 2404.57 151.844 2405.19 147.513C2405.21 147.348 2405.25 147.204 2405.27 147.039C2405.35 146.668 2405.48 146.317 2405.64 145.987C2406.4 144.379 2408.03 143.286 2410.86 143.471C2411.31 143.492 2411.6 143.781 2411.75 144.111C2412.08 144.234 2412.41 144.358 2412.73 144.544C2416.8 146.895 2416.34 152.36 2412.59 154.876ZM2441.15 162.011C2441.07 162.321 2440.89 162.609 2440.51 162.754C2434.18 165.187 2426.78 168.301 2421.42 161.97C2417.56 157.412 2416.45 150.566 2419.99 145.41C2427.03 135.202 2445.17 137.821 2446.35 151.267C2446.76 155.969 2444.49 159.743 2441.15 162.011ZM2459.76 156.691C2454.87 155.185 2451.88 149.638 2452.06 144.709C2452.21 140.44 2454.5 137.511 2457.98 136.439C2458 136.418 2458.02 136.398 2458.04 136.398C2464.87 132.747 2472.4 138.316 2472.44 145.822C2472.46 151.824 2466.21 158.67 2459.76 156.691ZM2468.48 179.829C2465.18 179.788 2462.91 177.231 2463.3 173.931C2463.59 171.56 2465.12 169.889 2467.1 169.147C2467.16 168.837 2467.39 168.569 2467.8 168.508C2471.16 167.992 2474.42 169.765 2474.52 173.457C2474.6 176.88 2472.01 179.871 2468.48 179.829ZM2485.29 141.265C2482.32 140.563 2480.52 137.553 2481.31 134.583C2481.76 132.933 2482.77 131.819 2484.07 131.263C2484.23 131.036 2484.48 130.871 2484.83 130.829C2485.18 130.788 2485.55 130.809 2485.9 130.829C2486.65 130.788 2487.43 130.891 2488.21 131.118C2488.57 131.221 2488.77 131.469 2488.85 131.737C2490.5 132.686 2491.74 134.315 2491.84 136.398C2492.03 139.986 2488.59 142.028 2485.29 141.265Z" fill="#FF6AAD"/>
<path fill-rule="evenodd" clip-rule="evenodd" d="M2286.97 239.106C2289.66 255.274 2270.8 295.695 2254.64 298.383C2241.15 301.071 2237.11 294.341 2230.38 284.903C2226.34 278.173 2219.61 264.692 2216.9 256.608C2204.78 231.001 2218.26 218.875 2239.8 208.103C2276.2 189.247 2274.85 210.811 2286.97 239.106Z" fill="#FF0081"/>
<path fill-rule="evenodd" clip-rule="evenodd" d="M2279.35 218.997C2272.6 222.412 2266.76 229.749 2271.51 237.004C2275.05 242.4 2281.82 243.997 2287.21 241.552C2287.44 246.927 2285.88 254.122 2283.19 261.6C2278.81 257.518 2272.58 253.597 2268.68 257.639C2261.55 265.036 2268.6 273.605 2276.02 277.284C2269.85 288.217 2261.97 297.191 2254.66 298.403C2241.18 301.091 2237.13 294.361 2230.4 284.923C2227.8 280.558 2224.06 273.403 2221.01 266.673C2226.52 262.833 2230.44 256.507 2226.79 249.636C2223.87 244.159 2218.28 242.36 2212.58 242.643C2211 229.547 2218.3 220.876 2230 213.56C2233.39 218.835 2238.08 222.817 2244.97 220.129C2251.97 217.42 2253.54 209.437 2251.1 203.091C2268.7 196.967 2274 204.971 2279.35 218.997ZM2245.22 286.661C2242.43 290.804 2248.19 294.523 2252.43 293.917C2252.59 293.897 2252.74 293.856 2252.9 293.836C2253.26 293.755 2253.6 293.634 2253.93 293.472C2255.5 292.724 2256.58 291.128 2256.39 288.359C2256.37 287.914 2256.09 287.631 2255.77 287.49C2255.65 287.166 2255.52 286.843 2255.34 286.52C2253.04 282.538 2247.68 282.983 2245.22 286.661ZM2238.22 258.67C2237.92 258.751 2237.64 258.932 2237.5 259.296C2235.11 265.501 2232.06 272.756 2238.26 278.011C2242.73 281.79 2249.44 282.882 2254.49 279.406C2264.5 272.514 2261.93 254.729 2248.75 253.577C2244.15 253.173 2240.45 255.396 2238.22 258.67ZM2243.44 240.44C2244.91 245.23 2250.35 248.16 2255.18 247.978C2259.36 247.837 2262.23 245.594 2263.29 242.178C2263.31 242.158 2263.33 242.138 2263.33 242.117C2266.9 235.428 2261.45 228.051 2254.09 228.011C2248.21 227.99 2241.5 234.114 2243.44 240.44ZM2220.76 231.891C2220.8 235.125 2223.31 237.348 2226.54 236.964C2228.87 236.681 2230.5 235.185 2231.23 233.245C2231.53 233.184 2231.8 232.962 2231.86 232.558C2232.36 229.264 2230.63 226.07 2227.01 225.969C2223.65 225.888 2220.72 228.435 2220.76 231.891ZM2258.56 215.419C2259.24 218.33 2262.19 220.088 2265.1 219.32C2266.72 218.875 2267.81 217.885 2268.36 216.612C2268.58 216.45 2268.74 216.208 2268.78 215.864C2268.82 215.521 2268.8 215.157 2268.78 214.813C2268.82 214.086 2268.72 213.318 2268.5 212.55C2268.4 212.206 2268.16 212.004 2267.89 211.923C2266.96 210.306 2265.37 209.094 2263.33 208.993C2259.81 208.811 2257.81 212.186 2258.56 215.419Z" fill="#FF6AAD"/>
<path fill-rule="evenodd" clip-rule="evenodd" d="M2261.12 12.2689C2244.62 9.52602 2203.37 28.7672 2200.63 45.2655C2197.89 59.0209 2204.75 63.1455 2214.38 70.0129C2221.25 74.1375 2235.01 81.0049 2243.26 83.7684C2269.39 96.1421 2281.76 82.3867 2292.75 60.4027C2311.99 23.2609 2289.99 24.6426 2261.12 12.2689Z" fill="#4B43E2"/>
<path fill-rule="evenodd" clip-rule="evenodd" d="M2281.64 20.0437C2278.15 26.9318 2270.66 32.8918 2263.26 28.0454C2257.75 24.4364 2256.13 17.5277 2258.62 12.0214C2253.14 11.7946 2245.79 13.3825 2238.16 16.1254C2242.33 20.6005 2246.33 26.9524 2242.21 30.9326C2234.66 38.2125 2225.91 31.0151 2222.16 23.4465C2211 29.7365 2201.85 37.7794 2200.61 45.2449C2197.87 59.0004 2204.73 63.1249 2214.36 69.9924C2218.82 72.6527 2226.12 76.4679 2232.99 79.582C2236.9 73.9519 2243.36 69.9511 2250.37 73.6838C2255.96 76.6535 2257.8 82.3661 2257.51 88.1817C2270.87 89.7903 2279.72 82.3455 2287.18 70.4048C2281.8 66.9402 2277.74 62.1556 2280.48 55.1232C2283.24 47.9877 2291.39 46.3791 2297.87 48.8745C2304.11 30.912 2295.95 25.5088 2281.64 20.0437ZM2212.59 54.8758C2208.36 57.7217 2204.57 51.8442 2205.19 47.5134C2205.21 47.3484 2205.25 47.2041 2205.27 47.0391C2205.35 46.6679 2205.48 46.3173 2205.64 45.9873C2206.4 44.3787 2208.03 43.2857 2210.86 43.4713C2211.31 43.492 2211.6 43.7807 2211.75 44.1106C2212.08 44.2344 2212.41 44.3581 2212.73 44.5437C2216.8 46.8947 2216.34 52.3598 2212.59 54.8758ZM2241.15 62.0113C2241.07 62.3206 2240.89 62.6093 2240.51 62.7537C2234.18 65.1872 2226.78 68.3013 2221.42 61.9701C2217.56 57.4124 2216.45 50.5656 2219.99 45.4099C2227.03 35.2016 2245.17 37.8207 2246.35 51.2668C2246.76 55.9688 2244.49 59.7428 2241.15 62.0113ZM2259.76 56.6906C2254.87 55.1851 2251.88 49.6376 2252.06 44.7087C2252.21 40.4397 2254.5 37.5113 2257.98 36.4389C2258 36.4183 2258.02 36.3977 2258.04 36.3977C2264.87 32.7474 2272.4 38.3156 2272.44 45.8223C2272.46 51.8236 2266.21 58.6704 2259.76 56.6906ZM2268.48 79.8294C2265.18 79.7882 2262.91 77.231 2263.3 73.9313C2263.59 71.5597 2265.12 69.8892 2267.1 69.1468C2267.16 68.8375 2267.39 68.5694 2267.8 68.5075C2271.16 67.9919 2274.42 69.7655 2274.52 73.457C2274.6 76.8804 2272.01 79.8707 2268.48 79.8294ZM2285.29 41.2647C2282.32 40.5635 2280.52 37.5526 2281.31 34.5829C2281.76 32.933 2282.77 31.8194 2284.07 31.2626C2284.23 31.0357 2284.48 30.8707 2284.83 30.8295C2285.18 30.7882 2285.55 30.8089 2285.9 30.8295C2286.65 30.7882 2287.43 30.8914 2288.21 31.1182C2288.57 31.2213 2288.77 31.4688 2288.85 31.7369C2290.5 32.6856 2291.74 34.3148 2291.84 36.3977C2292.03 39.986 2288.59 42.0277 2285.29 41.2647Z" fill="#3185FC"/>
<path fill-rule="evenodd" clip-rule="evenodd" d="M2361.12 112.269C2344.62 109.526 2303.37 128.767 2300.63 145.265C2297.89 159.021 2304.75 163.146 2314.38 170.013C2321.25 174.138 2335.01 181.005 2343.26 183.768C2369.39 196.142 2381.76 182.387 2392.75 160.403C2411.99 123.261 2389.99 124.643 2361.12 112.269Z" fill="#FF0081"/>
<path fill-rule="evenodd" clip-rule="evenodd" d="M2381.64 120.044C2378.15 126.932 2370.66 132.892 2363.26 128.045C2357.75 124.436 2356.13 117.528 2358.62 112.021C2353.14 111.795 2345.79 113.383 2338.16 116.125C2342.33 120.601 2346.33 126.952 2342.21 130.933C2334.66 138.212 2325.91 131.015 2322.16 123.446C2311 129.736 2301.85 137.779 2300.61 145.245C2297.87 159 2304.73 163.125 2314.36 169.992C2318.82 172.653 2326.12 176.468 2332.99 179.582C2336.9 173.952 2343.36 169.951 2350.37 173.684C2355.96 176.654 2357.8 182.366 2357.51 188.182C2370.87 189.79 2379.72 182.345 2387.18 170.405C2381.8 166.94 2377.74 162.156 2380.48 155.123C2383.24 147.988 2391.39 146.379 2397.87 148.875C2404.11 130.912 2395.95 125.509 2381.64 120.044ZM2312.59 154.876C2308.36 157.722 2304.57 151.844 2305.19 147.513C2305.21 147.348 2305.25 147.204 2305.27 147.039C2305.35 146.668 2305.48 146.317 2305.64 145.987C2306.4 144.379 2308.03 143.286 2310.86 143.471C2311.31 143.492 2311.6 143.781 2311.75 144.111C2312.08 144.234 2312.41 144.358 2312.73 144.544C2316.8 146.895 2316.34 152.36 2312.59 154.876ZM2341.15 162.011C2341.07 162.321 2340.89 162.609 2340.51 162.754C2334.18 165.187 2326.78 168.301 2321.42 161.97C2317.56 157.412 2316.45 150.566 2319.99 145.41C2327.03 135.202 2345.17 137.821 2346.35 151.267C2346.76 155.969 2344.49 159.743 2341.15 162.011ZM2359.76 156.691C2354.87 155.185 2351.88 149.638 2352.06 144.709C2352.21 140.44 2354.5 137.511 2357.98 136.439C2358 136.418 2358.02 136.398 2358.04 136.398C2364.87 132.747 2372.4 138.316 2372.44 145.822C2372.46 151.824 2366.21 158.67 2359.76 156.691ZM2368.48 179.829C2365.18 179.788 2362.91 177.231 2363.3 173.931C2363.59 171.56 2365.12 169.889 2367.1 169.147C2367.16 168.837 2367.39 168.569 2367.8 168.508C2371.16 167.992 2374.42 169.765 2374.52 173.457C2374.6 176.88 2372.01 179.871 2368.48 179.829ZM2385.29 141.265C2382.32 140.563 2380.52 137.553 2381.31 134.583C2381.76 132.933 2382.77 131.819 2384.07 131.263C2384.23 131.036 2384.48 130.871 2384.83 130.829C2385.18 130.788 2385.55 130.809 2385.9 130.829C2386.65 130.788 2387.43 130.891 2388.21 131.118C2388.57 131.221 2388.77 131.469 2388.85 131.737C2390.5 132.686 2391.74 134.315 2391.84 136.398C2392.03 139.986 2388.59 142.028 2385.29 141.265Z" fill="#FF6AAD"/>
<g clip-path="url(#clip1)">
<path d="M2406.9 234.884C2399.98 233.496 2392.91 232.963 2385.89 233.241C2378.54 233.519 2370.88 234.629 2364.1 238.238C2359.62 240.62 2354.75 245.015 2359 250.798C2363.57 257.067 2371.99 260.051 2378.52 261.995C2384.15 263.66 2390 264.377 2395.76 265.025C2402.7 265.811 2409.7 266.297 2416.68 266.228C2422.52 266.181 2428.77 265.996 2434.4 263.845C2438.27 262.365 2442.73 258.548 2442.73 253.204C2442.75 246.403 2435.22 242.91 2430.83 240.99C2423.07 237.636 2414.76 235.948 2406.57 234.814C2405.01 234.606 2405.03 237.497 2406.57 237.706C2413.18 238.608 2419.76 239.996 2426.15 242.216C2430.49 243.72 2437.18 245.825 2439.68 250.822C2441.87 255.194 2437.45 259.496 2434.31 260.815C2429.58 262.804 2424.28 263.082 2419.31 263.244C2408.13 263.614 2396.78 262.642 2385.73 260.699C2379.15 259.542 2372.54 257.368 2366.6 253.713C2364.35 252.325 2361.52 250.567 2360.21 247.861C2358.78 244.946 2361.3 243.211 2363.24 241.939C2369.8 237.613 2377.82 236.48 2385.21 236.133C2392.22 235.809 2399.32 236.248 2406.26 237.636C2407.78 237.983 2408.45 235.207 2406.9 234.884Z" fill="#2FE4DF"/>
<path d="M2410.56 227.042C2400.3 224.96 2389.78 224.173 2379.38 224.497C2367.95 224.867 2356.08 226.463 2345.51 231.946C2341.82 233.866 2336.85 236.526 2335.15 241.222C2333.72 245.2 2335.46 249.156 2337.79 252.071C2341.25 256.373 2346 259.311 2350.51 261.717C2356.24 264.77 2362.22 267.13 2368.32 268.865C2376.72 271.247 2385.46 272.265 2394.04 273.214C2404.46 274.37 2414.92 275.064 2425.37 274.995C2434.27 274.925 2443.71 274.625 2452.29 271.479C2458.37 269.258 2465.46 263.313 2465.36 254.893C2465.25 245.686 2455.98 240.597 2449.92 237.659C2439.7 232.709 2428.62 230.072 2417.75 228.152C2415.19 227.689 2412.63 227.296 2410.05 226.949C2407.67 226.625 2407.68 231.043 2410.05 231.367C2420.23 232.755 2430.44 234.907 2440.27 238.353C2444.72 239.903 2449.16 241.731 2453.28 244.321C2456.08 246.079 2459.21 248.277 2460.81 251.631C2463.82 257.923 2457.66 264.377 2453.13 266.459C2445.94 269.744 2437.71 270.16 2430.08 270.438C2412.75 271.085 2395.1 269.582 2377.94 266.528C2367.62 264.701 2357.2 261.231 2348.01 255.309C2344.77 253.227 2340.47 250.428 2338.81 246.288C2337.24 242.355 2340.72 239.949 2343.2 238.238C2353.35 231.321 2365.84 229.54 2377.33 228.985C2388.06 228.476 2398.97 229.147 2409.56 231.298C2411.91 231.784 2412.92 227.504 2410.56 227.042Z" fill="#2FE4DF"/>
<path d="M2416.15 215.013C2400.53 211.82 2384.52 210.618 2368.67 211.103C2351.33 211.635 2333.35 214.018 2317.27 222.184C2311.48 225.122 2303.64 229.17 2300.89 236.41C2298.4 242.957 2301.51 249.457 2305.46 254.06C2311.03 260.537 2318.34 264.978 2325.44 268.656C2334.21 273.214 2343.38 276.776 2352.72 279.32C2365.47 282.79 2378.66 284.317 2391.68 285.751C2407.25 287.44 2422.91 288.504 2438.55 288.388C2452.17 288.296 2466.54 287.81 2479.67 283.137C2484.38 281.449 2488.9 279.089 2492.47 274.995C2496.42 270.484 2500.08 264.516 2500 257.738C2499.86 243.303 2485.14 235.462 2475.65 230.928C2460.22 223.595 2443.59 219.662 2427.23 216.748C2423.28 216.054 2419.33 215.429 2415.37 214.897C2411.71 214.388 2411.75 221.166 2415.37 221.675C2431.02 223.803 2446.68 227.134 2461.79 232.431C2468.43 234.768 2475.04 237.474 2481.2 241.291C2485.52 243.951 2490.28 247.329 2492.85 252.348C2494.94 256.42 2494.6 260.491 2492.28 264.817C2489.68 269.651 2486.41 272.82 2482.08 274.972C2471.44 280.223 2458.76 280.893 2447.3 281.379C2420.39 282.513 2392.97 280.176 2366.33 275.457C2350.24 272.612 2333.96 267.176 2319.69 257.784C2314.88 254.615 2308.53 250.382 2306.2 244.09C2305.48 242.17 2305.44 240.505 2306.28 238.7C2307.55 235.971 2310.11 234.259 2312.28 232.709C2325.96 222.993 2342.71 219.824 2358.39 218.459C2374.18 217.095 2390.15 217.719 2405.87 219.986C2408.8 220.403 2411.71 220.912 2414.6 221.513C2418.22 222.276 2419.76 215.753 2416.15 215.013Z" fill="#2FE4DF"/>
</g>
<g clip-path="url(#clip2)">
<path d="M2513.33 292.118C2522.46 270.24 2531.6 248.271 2542.57 227.249C2541.15 227.174 2539.73 227.098 2538.32 227.023C2548.67 248.234 2549.63 272.69 2550.29 295.872C2551.56 295.218 2552.83 294.586 2554.1 293.932C2540.21 280.406 2526.31 266.903 2512.45 253.381C2510.46 251.442 2508.48 249.503 2506.47 247.583C2506.03 248.931 2505.59 250.279 2505.16 251.627C2527.98 252.401 2550.67 257.041 2573.05 261.201C2572.74 259.809 2572.46 258.421 2572.16 257.029C2552.21 269.28 2529.88 276.963 2509.93 289.214C2507.4 290.758 2510.01 294.572 2512.53 293.001C2532.48 280.75 2554.81 273.067 2574.76 260.816C2576.5 259.758 2575.77 256.998 2573.87 256.644C2551.06 252.404 2527.99 247.787 2504.73 247.001C2502.58 246.931 2502.14 249.802 2503.41 251.045C2517.3 264.571 2531.2 278.075 2545.06 291.596C2547.05 293.535 2549.03 295.474 2551.04 297.394C2552.56 298.896 2554.89 297.337 2554.84 295.454C2554.2 271.923 2553.12 246.976 2542.62 225.432C2541.78 223.681 2539.36 223.326 2538.38 225.205C2527.41 246.227 2518.25 268.192 2509.14 290.074C2508.04 292.846 2512.19 294.859 2513.33 292.118Z" fill="#FF6AAD"/>
<path d="M2542.47 227.536C2576.81 210.557 2612.68 197.235 2648.86 184.768C2659.33 181.159 2669.79 177.596 2680.25 174.011C2682.36 173.277 2681.18 170.035 2679.08 170.746C2643.02 183.166 2606.76 195.079 2571.72 210.197C2561.46 214.616 2551.33 219.318 2541.29 224.271C2539.33 225.242 2540.48 228.526 2542.47 227.536Z" fill="#FF6AAD"/>
<path d="M2551.46 254.798C2586.59 236.606 2623.54 220.671 2662.18 211.709C2673.54 209.087 2685.06 207.15 2696.68 206.169C2698.89 205.972 2698.59 202.542 2696.38 202.716C2655.09 206.22 2615.09 220.881 2577.71 238.118C2568.2 242.514 2558.81 247.142 2549.5 251.95C2547.53 252.967 2549.51 255.818 2551.46 254.798Z" fill="#FF6AAD"/>
<path d="M2574.05 260.568C2607.4 249.635 2641.77 242.082 2675.9 234.225C2685.72 231.972 2695.51 229.692 2705.32 227.367C2707.48 226.854 2706.3 223.612 2704.15 224.103C2669.4 232.384 2634.41 239.729 2599.96 249.19C2590.87 251.695 2581.84 254.353 2572.88 257.281C2570.78 258.015 2571.94 261.252 2574.05 260.568Z" fill="#FF6AAD"/>
<path d="M2554.88 273.102C2594.41 271.733 2633.74 267 2673.09 263.184C2683.84 262.134 2694.56 261.152 2705.31 260.315C2707.52 260.14 2707.25 256.691 2705.02 256.862C2665.64 259.901 2626.43 264.845 2587.05 267.789C2576.24 268.591 2565.43 269.253 2554.61 269.631C2552.36 269.729 2552.66 273.182 2554.88 273.102Z" fill="#FF6AAD"/>
<path d="M2597.88 218.01C2630.1 204.246 2663.04 192.089 2696.93 183.11C2698.36 182.72 2697.57 180.557 2696.16 180.952C2662.27 189.931 2629.33 202.087 2597.11 215.852C2595.76 216.422 2596.52 218.603 2597.88 218.01Z" fill="#FF6AAD"/>
<path d="M2626.25 235.588C2641.06 228.007 2658.27 228.207 2673.39 221.503C2674.74 220.91 2673.98 218.729 2672.62 219.344C2657.5 226.048 2640.29 225.848 2625.48 233.429C2624.18 234.102 2624.93 236.256 2626.25 235.588Z" fill="#FF6AAD"/>
<path d="M2615.6 258.214C2646.99 250.06 2679.65 247.225 2710.42 236.589C2711.83 236.1 2711.06 233.941 2709.65 234.431C2678.88 245.066 2646.22 247.901 2614.82 256.056C2613.4 256.423 2614.17 258.581 2615.6 258.214Z" fill="#FF6AAD"/>
</g>
<path fill-rule="evenodd" clip-rule="evenodd" d="M2286.97 339.106C2289.66 355.275 2270.8 395.695 2254.64 398.383C2241.15 401.071 2237.11 394.341 2230.38 384.903C2226.34 378.173 2219.61 364.693 2216.9 356.609C2204.78 331.002 2218.26 318.876 2239.8 308.103C2276.2 289.247 2274.85 310.812 2286.97 339.106Z" fill="#FF0081"/>
<path fill-rule="evenodd" clip-rule="evenodd" d="M2279.35 318.997C2272.6 322.412 2266.76 329.749 2271.51 337.004C2275.05 342.4 2281.82 343.997 2287.21 341.552C2287.44 346.927 2285.88 354.122 2283.19 361.6C2278.81 357.518 2272.58 353.597 2268.68 357.639C2261.55 365.036 2268.6 373.605 2276.02 377.284C2269.85 388.217 2261.97 397.191 2254.66 398.403C2241.18 401.091 2237.13 394.361 2230.4 384.923C2227.8 380.558 2224.06 373.403 2221.01 366.673C2226.52 362.833 2230.44 356.507 2226.79 349.636C2223.87 344.159 2218.28 342.36 2212.58 342.643C2211 329.547 2218.3 320.876 2230 313.56C2233.39 318.835 2238.08 322.817 2244.97 320.129C2251.97 317.42 2253.54 309.437 2251.1 303.091C2268.7 296.967 2274 304.971 2279.35 318.997ZM2245.22 386.661C2242.43 390.804 2248.19 394.523 2252.43 393.917C2252.59 393.897 2252.74 393.856 2252.9 393.836C2253.26 393.755 2253.6 393.634 2253.93 393.472C2255.5 392.724 2256.58 391.128 2256.39 388.359C2256.37 387.914 2256.09 387.631 2255.77 387.49C2255.65 387.166 2255.52 386.843 2255.34 386.52C2253.04 382.538 2247.68 382.983 2245.22 386.661ZM2238.22 358.67C2237.92 358.751 2237.64 358.932 2237.5 359.296C2235.11 365.501 2232.06 372.756 2238.26 378.011C2242.73 381.79 2249.44 382.882 2254.49 379.406C2264.5 372.514 2261.93 354.729 2248.75 353.577C2244.15 353.173 2240.45 355.396 2238.22 358.67ZM2243.44 340.44C2244.91 345.23 2250.35 348.16 2255.18 347.978C2259.36 347.837 2262.23 345.594 2263.29 342.178C2263.31 342.158 2263.33 342.138 2263.33 342.117C2266.9 335.428 2261.45 328.051 2254.09 328.011C2248.21 327.99 2241.5 334.114 2243.44 340.44ZM2220.76 331.891C2220.8 335.125 2223.31 337.348 2226.54 336.964C2228.87 336.681 2230.5 335.185 2231.23 333.245C2231.53 333.184 2231.8 332.962 2231.86 332.558C2232.36 329.264 2230.63 326.07 2227.01 325.969C2223.65 325.888 2220.72 328.435 2220.76 331.891ZM2258.56 315.419C2259.24 318.33 2262.19 320.088 2265.1 319.32C2266.72 318.875 2267.81 317.885 2268.36 316.612C2268.58 316.45 2268.74 316.208 2268.78 315.864C2268.82 315.521 2268.8 315.157 2268.78 314.813C2268.82 314.086 2268.72 313.318 2268.5 312.55C2268.4 312.206 2268.16 312.004 2267.89 311.923C2266.96 310.306 2265.37 309.094 2263.33 308.993C2259.81 308.811 2257.81 312.186 2258.56 315.419Z" fill="#FF6AAD"/>
<path fill-rule="evenodd" clip-rule="evenodd" d="M2291.85 445.667C2294.49 470.836 2294.49 501.289 2261.4 499.958C2246.84 499.958 2240.2 495.985 2233.59 481.424C2230.94 477.451 2233.59 470.836 2230.94 465.532C2226.97 458.917 2220.36 458.917 2216.38 453.613C2200.49 435.079 2200.49 397.992 2234.92 400.634C2253.45 401.965 2253.45 417.857 2265.37 427.114C2275.96 433.748 2291.85 428.445 2291.85 445.667Z" fill="#FF0081"/>
<path fill-rule="evenodd" clip-rule="evenodd" d="M2234 400.594C2233.72 406.295 2236.03 412.254 2241.53 414.459C2246.1 416.307 2250.81 415.552 2253.95 412.791C2257.19 417.638 2260.13 423.021 2265.39 427.113C2275.4 433.371 2290.16 429 2291.73 443.065C2289.03 443.363 2286.41 444.058 2284.16 445.726C2281.36 447.812 2279.61 452.322 2280.63 455.738C2282.18 460.943 2287.7 462.77 2292.92 462.77C2292.9 475.941 2290.42 488.336 2281.36 494.971C2279.14 491.555 2275.46 489.429 2271.01 490.74C2266.34 492.131 2264.73 495.666 2264.34 499.977C2263.38 499.997 2262.43 499.997 2261.42 499.957C2246.86 499.957 2240.22 495.984 2233.61 481.424C2232.63 479.954 2232.37 478.126 2232.31 476.12C2236.07 475.206 2240.48 473.577 2242.23 470.18C2244.61 465.551 2242.78 460.824 2239.88 456.89C2233.63 448.408 2225.6 450.991 2219.58 456.632C2218.41 455.818 2217.34 454.864 2216.4 453.613C2200.61 435.238 2200.49 398.687 2234 400.594ZM2246.02 476.914C2241.91 479.695 2240.52 487.145 2245.03 490.303C2246.2 491.137 2247.61 491.495 2248.98 491.455C2252.12 492.468 2256.31 488.972 2256.87 485.436C2257.72 480.112 2251.4 473.279 2246.02 476.914ZM2259.99 473.041C2258.38 478.603 2261.46 486.012 2267.77 486.707C2272.44 487.224 2276.37 485.118 2278.04 481.602C2280.82 478.146 2279.71 472.008 2276.1 469.385C2271.31 465.909 2261.85 466.565 2259.99 473.041ZM2262.57 450.772C2260.42 452.679 2259.55 456.215 2261.26 458.718C2262.73 460.844 2264.59 461.658 2266.4 461.559C2268.79 461.797 2271.11 460.744 2272.32 458.142C2272.82 457.049 2273.1 455.798 2273.08 454.586C2273.12 454.248 2273.14 453.891 2273.14 453.553C2273.14 453.215 2272.98 452.977 2272.78 452.818C2272.34 451.388 2271.37 450.176 2269.7 449.64C2267.48 448.905 2264.34 449.183 2262.57 450.772ZM2252.78 443.521C2255.06 443.7 2256.71 442.687 2257.74 441.098C2257.98 441.058 2258.2 440.899 2258.36 440.601C2260.18 436.946 2259.17 432.417 2254.9 431.126C2251.07 429.974 2247.51 432.318 2247.05 436.291C2246.62 439.866 2249.1 443.224 2252.78 443.521ZM2215.19 421.75C2212.45 429.239 2217.06 437.065 2224.94 438.238C2229.67 438.953 2232.91 436.172 2234.34 432.457C2237.96 427.53 2235.61 420.637 2231.06 416.863C2225.58 412.274 2217.55 415.254 2215.19 421.75Z" fill="#FF6AAD"/>
<path fill-rule="evenodd" clip-rule="evenodd" d="M2461.12 12.2689C2444.62 9.52602 2403.37 28.7672 2400.63 45.2655C2397.89 59.0209 2404.75 63.1455 2414.38 70.0129C2421.25 74.1375 2435.01 81.0049 2443.26 83.7684C2469.39 96.1421 2481.76 82.3867 2492.75 60.4027C2511.99 23.2609 2489.99 24.6426 2461.12 12.2689Z" fill="#4B43E2"/>
<path fill-rule="evenodd" clip-rule="evenodd" d="M2481.64 20.0437C2478.15 26.9318 2470.66 32.8918 2463.26 28.0454C2457.75 24.4364 2456.13 17.5277 2458.62 12.0214C2453.14 11.7946 2445.79 13.3825 2438.16 16.1254C2442.33 20.6005 2446.33 26.9524 2442.21 30.9326C2434.66 38.2125 2425.91 31.0151 2422.16 23.4465C2411 29.7365 2401.85 37.7794 2400.61 45.2449C2397.87 59.0004 2404.73 63.1249 2414.36 69.9924C2418.82 72.6527 2426.12 76.4679 2432.99 79.582C2436.9 73.9519 2443.36 69.9511 2450.37 73.6838C2455.96 76.6535 2457.8 82.3661 2457.51 88.1817C2470.87 89.7903 2479.72 82.3455 2487.18 70.4048C2481.8 66.9402 2477.74 62.1556 2480.48 55.1232C2483.24 47.9877 2491.39 46.3791 2497.87 48.8745C2504.11 30.912 2495.95 25.5088 2481.64 20.0437ZM2412.59 54.8758C2408.36 57.7217 2404.57 51.8442 2405.19 47.5134C2405.21 47.3484 2405.25 47.2041 2405.27 47.0391C2405.35 46.6679 2405.48 46.3173 2405.64 45.9873C2406.4 44.3787 2408.03 43.2857 2410.86 43.4713C2411.31 43.492 2411.6 43.7807 2411.75 44.1106C2412.08 44.2344 2412.41 44.3581 2412.73 44.5437C2416.8 46.8947 2416.34 52.3598 2412.59 54.8758ZM2441.15 62.0113C2441.07 62.3206 2440.89 62.6093 2440.51 62.7537C2434.18 65.1872 2426.78 68.3013 2421.42 61.9701C2417.56 57.4124 2416.45 50.5656 2419.99 45.4099C2427.03 35.2016 2445.17 37.8207 2446.35 51.2668C2446.76 55.9688 2444.49 59.7428 2441.15 62.0113ZM2459.76 56.6906C2454.87 55.1851 2451.88 49.6376 2452.06 44.7087C2452.21 40.4397 2454.5 37.5113 2457.98 36.4389C2458 36.4183 2458.02 36.3977 2458.04 36.3977C2464.87 32.7474 2472.4 38.3156 2472.44 45.8223C2472.46 51.8236 2466.21 58.6704 2459.76 56.6906ZM2468.48 79.8294C2465.18 79.7882 2462.91 77.231 2463.3 73.9313C2463.59 71.5597 2465.12 69.8892 2467.1 69.1468C2467.16 68.8375 2467.39 68.5694 2467.8 68.5075C2471.16 67.9919 2474.42 69.7655 2474.52 73.457C2474.6 76.8804 2472.01 79.8707 2468.48 79.8294ZM2485.29 41.2647C2482.32 40.5635 2480.52 37.5526 2481.31 34.5829C2481.76 32.933 2482.77 31.8194 2484.07 31.2626C2484.23 31.0357 2484.48 30.8707 2484.83 30.8295C2485.18 30.7882 2485.55 30.8089 2485.9 30.8295C2486.65 30.7882 2487.43 30.8914 2488.21 31.1182C2488.57 31.2213 2488.77 31.4688 2488.85 31.7369C2490.5 32.6856 2491.74 34.3148 2491.84 36.3977C2492.03 39.986 2488.59 42.0277 2485.29 41.2647Z" fill="#3185FC"/>
<path fill-rule="evenodd" clip-rule="evenodd" d="M2561.12 112.269C2544.62 109.526 2503.37 128.767 2500.63 145.265C2497.89 159.021 2504.75 163.146 2514.38 170.013C2521.25 174.138 2535.01 181.005 2543.26 183.768C2569.39 196.142 2581.76 182.387 2592.75 160.403C2611.99 123.261 2589.99 124.643 2561.12 112.269Z" fill="#FF0081"/>
<path fill-rule="evenodd" clip-rule="evenodd" d="M2581.64 120.044C2578.15 126.932 2570.66 132.892 2563.26 128.045C2557.75 124.436 2556.13 117.528 2558.62 112.021C2553.14 111.795 2545.79 113.383 2538.16 116.125C2542.33 120.601 2546.33 126.952 2542.21 130.933C2534.66 138.212 2525.91 131.015 2522.16 123.446C2511 129.736 2501.85 137.779 2500.61 145.245C2497.87 159 2504.73 163.125 2514.36 169.992C2518.82 172.653 2526.12 176.468 2532.99 179.582C2536.9 173.952 2543.36 169.951 2550.37 173.684C2555.96 176.654 2557.8 182.366 2557.51 188.182C2570.87 189.79 2579.72 182.345 2587.18 170.405C2581.8 166.94 2577.74 162.156 2580.48 155.123C2583.24 147.988 2591.39 146.379 2597.87 148.875C2604.11 130.912 2595.95 125.509 2581.64 120.044ZM2512.59 154.876C2508.36 157.722 2504.57 151.844 2505.19 147.513C2505.21 147.348 2505.25 147.204 2505.27 147.039C2505.35 146.668 2505.48 146.317 2505.64 145.987C2506.4 144.379 2508.03 143.286 2510.86 143.471C2511.31 143.492 2511.6 143.781 2511.75 144.111C2512.08 144.234 2512.41 144.358 2512.73 144.544C2516.8 146.895 2516.34 152.36 2512.59 154.876ZM2541.15 162.011C2541.07 162.321 2540.89 162.609 2540.51 162.754C2534.18 165.187 2526.78 168.301 2521.42 161.97C2517.56 157.412 2516.45 150.566 2519.99 145.41C2527.03 135.202 2545.17 137.821 2546.35 151.267C2546.76 155.969 2544.49 159.743 2541.15 162.011ZM2559.76 156.691C2554.87 155.185 2551.88 149.638 2552.06 144.709C2552.21 140.44 2554.5 137.511 2557.98 136.439C2558 136.418 2558.02 136.398 2558.04 136.398C2564.87 132.747 2572.4 138.316 2572.44 145.822C2572.46 151.824 2566.21 158.67 2559.76 156.691ZM2568.48 179.829C2565.18 179.788 2562.91 177.231 2563.3 173.931C2563.59 171.56 2565.12 169.889 2567.1 169.147C2567.16 168.837 2567.39 168.569 2567.8 168.508C2571.16 167.992 2574.42 169.765 2574.52 173.457C2574.6 176.88 2572.01 179.871 2568.48 179.829ZM2585.29 141.265C2582.32 140.563 2580.52 137.553 2581.31 134.583C2581.76 132.933 2582.77 131.819 2584.07 131.263C2584.23 131.036 2584.48 130.871 2584.83 130.829C2585.18 130.788 2585.55 130.809 2585.9 130.829C2586.65 130.788 2587.43 130.891 2588.21 131.118C2588.57 131.221 2588.77 131.469 2588.85 131.737C2590.5 132.686 2591.74 134.315 2591.84 136.398C2592.03 139.986 2588.59 142.028 2585.29 141.265Z" fill="#FF6AAD"/>
<g clip-path="url(#clip3)">
<path d="M2343.12 551.653C2343.12 551.653 2342.91 551.587 2342.5 551.441C2342.09 551.309 2341.48 551.136 2340.66 551.004C2339.04 550.752 2336.52 550.58 2333.69 551.613C2332.28 552.13 2330.85 553.018 2329.71 554.369C2328.56 555.708 2327.78 557.497 2327.43 559.511C2326.91 563.46 2327.84 568.521 2331.47 571.914C2335.04 575.346 2340.6 577.055 2346.45 577.36C2352.33 577.651 2358.62 576.697 2364.72 574.604C2370.77 572.483 2376.75 569.118 2381.14 564.241C2383.31 561.803 2384.99 558.954 2385.84 555.854L2385.92 555.562C2385.93 555.536 2385.96 555.416 2385.95 555.456L2385.99 555.297L2386.13 554.648L2386.42 553.349C2386.6 552.501 2386.72 551.706 2386.86 550.871C2387.07 549.188 2387.25 547.505 2387.25 545.823C2387.43 539.078 2385.34 532.413 2381.41 527.086C2377.51 521.733 2372.02 517.704 2366.22 514.948C2360.37 512.232 2354.21 510.615 2348.27 509.979C2342.34 509.33 2336.63 509.608 2331.51 510.615C2326.4 511.635 2321.87 513.371 2318.22 515.558C2314.56 517.731 2311.85 520.368 2309.99 522.806C2308.12 525.244 2307.01 527.444 2306.39 528.981C2306.04 529.736 2305.87 530.359 2305.71 530.756C2305.57 531.167 2305.49 531.379 2305.49 531.379C2305.49 531.379 2305.54 531.167 2305.66 530.743C2305.78 530.332 2305.9 529.696 2306.19 528.915C2306.71 527.324 2307.58 524.979 2309.37 522.369C2311.12 519.745 2313.76 516.83 2317.43 514.339C2321.07 511.821 2325.71 509.687 2331.02 508.415C2336.32 507.117 2342.3 506.547 2348.55 507.051C2354.79 507.528 2361.37 508.972 2367.67 511.794C2373.93 514.643 2380.09 518.817 2384.5 524.82C2388.97 530.743 2391.39 538.376 2391.22 545.876C2391.22 547.757 2391.01 549.612 2390.77 551.454C2390.61 552.382 2390.45 553.336 2390.25 554.224L2389.95 555.522L2389.8 556.172L2389.76 556.331L2389.71 556.556L2389.6 556.9C2388.54 560.65 2386.49 564.016 2384 566.786C2381.49 569.568 2378.55 571.821 2375.47 573.636C2372.36 575.452 2369.13 576.869 2365.85 577.93C2359.29 580.063 2352.57 580.911 2346.22 580.381C2343.05 580.103 2339.98 579.493 2337.14 578.393C2334.31 577.307 2331.72 575.69 2329.74 573.597C2327.74 571.516 2326.42 568.945 2325.85 566.415C2325.55 565.142 2325.4 563.91 2325.39 562.678C2325.38 562.042 2325.4 561.472 2325.44 560.915L2325.46 560.703V560.597V560.544C2325.47 560.346 2325.47 560.465 2325.47 560.399L2325.55 559.961C2325.6 559.67 2325.66 559.392 2325.73 559.113C2326.28 556.887 2327.34 554.899 2328.76 553.468C2330.16 552.037 2331.84 551.189 2333.38 550.739C2336.51 549.824 2339.08 550.301 2340.68 550.712C2341.49 550.937 2342.1 551.176 2342.5 551.335C2342.92 551.56 2343.12 551.653 2343.12 551.653Z" fill="#81B5FF"/>
<path d="M2343.12 551.653C2343.12 551.653 2343.15 551.812 2343.19 552.13C2343.23 552.448 2343.3 552.899 2343.44 553.495C2343.74 554.648 2344.31 556.397 2345.85 557.947C2347.37 559.471 2349.98 560.425 2352.96 560.186C2355.95 559.961 2359.26 558.742 2362.2 556.556C2365.1 554.356 2367.7 551.096 2368.42 547.148C2369.17 543.225 2367.83 538.919 2365.16 535.262C2364.84 534.798 2364.48 534.347 2364.11 533.897C2363.8 533.512 2363.33 532.996 2362.94 532.545C2362.11 531.631 2361.37 530.849 2360.46 530.041C2358.73 528.424 2356.82 526.98 2354.74 525.814C2352.66 524.648 2350.42 523.773 2348.09 523.23C2345.74 522.713 2343.33 522.527 2340.92 522.633C2336.07 522.872 2331.29 524.462 2327.01 526.768C2322.7 529.073 2318.83 532.108 2315.56 535.487C2312.28 538.879 2309.53 542.563 2307.45 546.366C2305.37 550.169 2303.88 554.025 2303.1 557.722C2302.31 561.419 2302.17 564.93 2302.53 567.991C2302.93 571.052 2303.72 573.663 2304.64 575.717C2305.55 577.77 2306.52 579.268 2307.2 580.275C2307.93 581.255 2308.31 581.772 2308.31 581.772C2308.31 581.772 2307.87 581.295 2307.04 580.394C2306.27 579.453 2305.09 578.075 2303.96 576.048C2302.84 574.034 2301.72 571.41 2301.09 568.217C2300.48 565.023 2300.29 561.3 2300.93 557.324C2301.52 553.349 2302.81 549.135 2304.88 545.027C2306.93 540.92 2309.63 536.825 2313.05 533.128C2316.46 529.431 2320.51 526.052 2325.18 523.429C2329.86 520.858 2335.16 519.016 2340.71 518.698C2343.48 518.526 2346.29 518.751 2348.99 519.387C2351.69 520.036 2354.29 521.083 2356.66 522.435C2361.42 525.138 2365.25 529.007 2368.14 533.194C2369.59 535.341 2370.73 537.726 2371.38 540.231C2372.02 542.735 2372.03 545.372 2371.46 547.784C2370.91 550.209 2369.78 552.368 2368.39 554.157C2367 555.959 2365.31 557.377 2363.61 558.517C2360.13 560.756 2356.38 561.856 2353.03 561.79C2351.36 561.763 2349.77 561.459 2348.43 560.862C2347.08 560.279 2346.02 559.405 2345.24 558.504C2343.7 556.622 2343.38 554.714 2343.23 553.521C2343.17 552.912 2343.13 552.435 2343.15 552.13C2343.12 551.825 2343.12 551.653 2343.12 551.653Z" fill="#81B5FF"/>
<path d="M2343.12 551.653C2345.03 552.104 2346.98 552.356 2348.9 552.183C2349.85 552.091 2350.79 551.905 2351.65 551.561C2352.53 551.229 2353.3 550.699 2353.87 550.024C2354.45 549.348 2354.77 548.5 2354.87 547.638C2354.97 546.751 2354.83 545.85 2354.58 544.975C2354.06 543.213 2353.04 541.596 2351.9 540.112L2351.96 540.178C2349.32 537.422 2345.69 535.872 2341.95 535.964C2338.22 536.004 2334.57 537.448 2331.31 539.383C2328.05 541.371 2325.15 543.968 2322.73 546.936C2320.3 549.904 2318.31 553.217 2317 556.768C2315.7 560.306 2315.08 564.083 2315.52 567.714C2315.92 571.357 2317.33 574.816 2319.59 577.718C2321.83 580.62 2324.83 583.098 2328.11 584.741C2331.45 586.424 2335.13 587.55 2338.91 588.199C2342.7 588.862 2346.58 589.021 2350.45 588.862C2354.32 588.676 2358.2 588.199 2362 587.365C2365.81 586.53 2369.54 585.364 2373.12 583.853C2376.71 582.356 2380.17 580.527 2383.34 578.301C2386.49 576.062 2389.42 573.464 2391.82 570.443C2394.23 567.422 2396.12 563.99 2397.32 560.293C2398.52 556.596 2399 552.647 2398.76 548.698C2398.55 544.75 2397.67 540.841 2396.44 537.024C2398.03 540.695 2399.26 544.577 2399.73 548.606C2400.24 552.634 2400.03 556.782 2399.04 560.783C2398.07 564.798 2396.15 568.548 2393.75 571.914C2391.35 575.293 2388.33 578.182 2385.06 580.686C2378.46 585.655 2370.77 588.994 2362.8 590.903C2358.81 591.87 2354.73 592.493 2350.61 592.705C2346.5 592.903 2342.34 592.758 2338.23 592.069C2334.14 591.38 2330.04 590.24 2326.26 588.266C2322.42 586.265 2319.12 583.509 2316.49 580.077C2313.86 576.645 2312.11 572.431 2311.75 568.098C2311.34 563.765 2312.17 559.445 2313.69 555.523C2315.24 551.587 2317.48 547.983 2320.24 544.856C2322.98 541.715 2326.21 539.012 2329.86 536.945C2333.49 534.904 2337.65 533.513 2341.95 533.645C2344.09 533.712 2346.25 534.189 2348.18 535.143C2350.14 536.057 2351.79 537.475 2353.16 539.052L2353.2 539.105L2353.22 539.131C2354.34 540.801 2355.34 542.63 2355.8 544.657C2356.03 545.677 2356.11 546.751 2355.93 547.811C2355.73 548.857 2355.26 549.891 2354.5 550.66C2353.76 551.428 2352.82 551.958 2351.85 552.263C2350.87 552.581 2349.86 552.713 2348.87 552.713C2346.92 552.7 2344.97 552.263 2343.12 551.653Z" fill="#81B5FF"/>
<path d="M2343.53 557.364C2346.13 557.364 2348.62 555.085 2348.5 552.395C2348.38 549.705 2346.31 547.426 2343.53 547.426C2340.93 547.426 2338.44 549.705 2338.56 552.395C2338.68 555.085 2340.73 557.364 2343.53 557.364Z" fill="#81B5FF"/>
</g>
<path fill-rule="evenodd" clip-rule="evenodd" d="M2185.71 161.221C2188.69 144.964 2167.79 104.323 2149.88 101.621C2134.94 98.9182 2130.46 105.685 2123 115.174C2118.53 121.941 2111.07 135.495 2108.07 143.623C2094.63 169.369 2109.57 181.561 2133.44 192.392C2173.77 211.351 2172.27 189.669 2185.71 161.221Z" fill="#4B43E2"/>
<path fill-rule="evenodd" clip-rule="evenodd" d="M2177.27 181.439C2169.79 178.005 2163.31 170.628 2168.58 163.333C2172.5 157.908 2180 156.302 2185.98 158.761C2186.22 153.356 2184.5 146.122 2181.52 138.603C2176.66 142.708 2169.76 146.65 2165.44 142.586C2157.54 135.149 2165.35 126.533 2173.57 122.835C2166.74 111.841 2158.01 102.819 2149.9 101.6C2134.96 98.8972 2130.48 105.664 2123.03 115.153C2120.14 119.543 2116 126.736 2112.61 133.503C2118.73 137.364 2123.07 143.724 2119.02 150.633C2115.79 156.14 2109.59 157.948 2103.28 157.664C2101.53 170.832 2109.61 179.549 2122.58 186.905C2126.34 181.601 2131.54 177.598 2139.17 180.301C2146.92 183.024 2148.67 191.05 2145.96 197.431C2165.46 203.588 2171.33 195.541 2177.27 181.439ZM2139.44 113.406C2136.35 109.24 2142.73 105.501 2147.44 106.111C2147.62 106.131 2147.77 106.172 2147.95 106.192C2148.35 106.274 2148.74 106.395 2149.09 106.558C2150.84 107.31 2152.03 108.915 2151.83 111.699C2151.8 112.146 2151.49 112.431 2151.13 112.573C2151 112.898 2150.86 113.223 2150.66 113.548C2148.11 117.551 2142.17 117.104 2139.44 113.406ZM2131.69 141.55C2131.36 141.469 2131.04 141.286 2130.89 140.92C2128.25 134.681 2124.86 127.386 2131.74 122.103C2136.69 118.303 2144.12 117.206 2149.72 120.701C2160.81 127.63 2157.96 145.512 2143.36 146.671C2138.26 147.077 2134.16 144.842 2131.69 141.55ZM2137.47 159.879C2139.11 155.063 2145.13 152.116 2150.48 152.299C2155.12 152.442 2158.3 154.697 2159.46 158.131C2159.48 158.152 2159.51 158.172 2159.51 158.192C2163.47 164.918 2157.42 172.335 2149.27 172.376C2142.76 172.396 2135.32 166.239 2137.47 159.879ZM2112.35 168.474C2112.39 165.223 2115.17 162.988 2118.75 163.374C2121.33 163.658 2123.14 165.162 2123.95 167.113C2124.28 167.174 2124.57 167.397 2124.64 167.804C2125.2 171.116 2123.27 174.327 2119.27 174.428C2115.55 174.51 2112.3 171.949 2112.35 168.474ZM2154.22 185.036C2154.98 182.109 2158.25 180.342 2161.48 181.114C2163.27 181.561 2164.48 182.556 2165.08 183.837C2165.33 183.999 2165.51 184.243 2165.55 184.588C2165.6 184.934 2165.58 185.3 2165.55 185.645C2165.6 186.377 2165.49 187.149 2165.24 187.921C2165.13 188.266 2164.86 188.47 2164.57 188.551C2163.54 190.177 2161.77 191.396 2159.51 191.497C2155.61 191.68 2153.39 188.287 2154.22 185.036Z" fill="#3185FC"/>
<g clip-path="url(#clip4)">
<path fill-rule="evenodd" clip-rule="evenodd" d="M2199.63 226.423C2199.63 213.957 2193.43 201.509 2179.78 200.257C2161.19 197.771 2159.94 213.957 2148.78 221.433C2132.66 233.899 2091.75 222.685 2102.91 256.327C2109.1 276.27 2123.98 271.279 2136.38 278.755C2150.01 284.979 2154.98 301.184 2171.1 299.931C2189.7 297.446 2189.7 284.979 2190.94 270.027C2192.19 257.58 2200.87 237.637 2199.63 226.423Z" fill="#4B43E2"/>
<path fill-rule="evenodd" clip-rule="evenodd" d="M2171.12 299.932C2187.15 297.782 2189.36 288.232 2190.46 276.064C2188.17 275.391 2186.07 274.233 2184.55 272.27C2182.52 269.654 2182.22 265.916 2183.45 262.888C2185.46 257.935 2189.6 255.505 2194.03 255.655C2196.87 245.226 2200.45 233.899 2199.63 226.423C2199.63 217.377 2196.34 208.369 2189.34 203.603C2187.39 206.238 2184.53 207.939 2180.73 207.154C2176.96 206.369 2175.25 203.435 2174.48 200.07C2160.82 201.08 2158.77 214.742 2148.78 221.433C2148.56 221.62 2148.3 221.77 2148.06 221.938C2151.18 228.741 2151.42 238.535 2143.3 240.011C2134.76 241.562 2130.76 235.245 2129.82 228.068C2112.91 231.189 2095.06 232.685 2102.91 256.309C2109.1 276.251 2123.98 271.261 2136.38 278.737C2138.18 279.559 2139.84 280.569 2141.38 281.671C2145.75 277.765 2151.37 275.391 2155.96 280.139C2159.87 284.157 2160.09 291.091 2156.97 295.633C2160.87 298.511 2165.24 300.38 2171.12 299.932ZM2167.73 228.199C2166.97 222.928 2171.38 217.975 2176.36 216.947C2180.16 216.162 2183.11 217.471 2184.77 220.106C2184.94 220.143 2185.12 220.218 2185.27 220.405C2189.38 225.62 2186.24 232.741 2180.62 235.395C2174.6 238.217 2168.7 234.853 2167.73 228.199ZM2154.1 247.188C2154.33 247.3 2154.46 247.468 2154.62 247.618C2155.16 247.861 2155.65 248.216 2156.04 248.739C2156.97 249.954 2157.12 251.711 2156.61 253.15C2155.39 256.664 2151.18 258.01 2148.36 255.262C2145.9 252.87 2147.65 249.244 2150.16 247.711C2150.33 247.618 2150.51 247.525 2150.68 247.45C2150.74 247.412 2150.79 247.394 2150.85 247.356C2151.91 246.87 2153.08 246.646 2154.1 247.188ZM2105.34 248.347C2103.24 245.749 2104.49 242.702 2106.79 240.609C2106.81 240.348 2106.92 240.067 2107.2 239.88C2108.99 238.647 2111.63 237.208 2113.86 238.142C2117.5 239.656 2117.8 244.721 2116.11 247.842C2113.88 251.973 2108.22 251.879 2105.34 248.347ZM2125.45 269.728C2119.92 267.542 2116.87 260.309 2119.66 254.832C2121.87 250.496 2126.75 247.88 2131.56 248.328C2136.01 248.739 2138.35 252.066 2139.04 255.972C2139.17 256.122 2139.26 256.309 2139.26 256.571C2139.26 260.103 2139.56 264.906 2136.45 267.411C2133.53 269.766 2129.13 271.168 2125.45 269.728ZM2164.76 273.298C2159.57 271.354 2157.51 263.86 2160.57 259.337C2162.86 255.991 2167.42 254.047 2171.36 255.505C2174.76 256.757 2176.25 259.505 2176.4 262.701C2176.44 262.832 2176.44 262.963 2176.42 263.112C2176.42 263.149 2176.4 263.206 2176.4 263.262C2176.4 264.047 2176.34 264.869 2176.2 265.691C2176.16 265.897 2176.07 266.028 2175.95 266.14C2175.54 268.42 2174.86 270.775 2173.11 272.139C2170.67 274.008 2167.64 274.382 2164.76 273.298ZM2172.22 294.997C2171.16 293.67 2170.17 291.671 2170.84 289.932C2171.36 288.587 2172.48 287.577 2173.89 287.222C2177.2 286.381 2180.1 288.587 2179.93 292.063C2179.91 292.512 2179.64 292.792 2179.32 292.904C2179.25 293.091 2179.17 293.297 2179.08 293.465C2177.72 295.951 2174.37 297.67 2172.22 294.997Z" fill="#3185FC"/>
</g>
<path fill-rule="evenodd" clip-rule="evenodd" d="M2186.94 360.894C2189.96 344.726 2168.76 304.305 2150.57 301.617C2135.42 298.929 2130.87 305.659 2123.3 315.097C2118.76 321.827 2111.19 335.308 2108.14 343.392C2094.51 368.999 2109.67 381.125 2133.89 391.897C2174.83 410.753 2173.3 389.189 2186.94 360.894Z" fill="#4B43E2"/>
<path fill-rule="evenodd" clip-rule="evenodd" d="M2178.37 381.003C2170.78 377.588 2164.21 370.251 2169.55 362.996C2173.53 357.6 2181.14 356.003 2187.21 358.448C2187.46 353.073 2185.71 345.878 2182.69 338.4C2177.76 342.482 2170.76 346.403 2166.37 342.361C2158.35 334.964 2166.28 326.395 2174.62 322.716C2167.69 311.783 2158.83 302.809 2150.6 301.597C2135.44 298.909 2130.89 305.639 2123.33 315.077C2120.39 319.442 2116.19 326.597 2112.76 333.327C2118.96 337.167 2123.37 343.493 2119.26 350.364C2115.98 355.841 2109.69 357.64 2103.28 357.357C2101.51 370.453 2109.71 379.124 2122.87 386.44C2126.69 381.165 2131.96 377.184 2139.71 379.872C2147.58 382.58 2149.35 390.563 2146.6 396.909C2166.39 403.033 2172.35 395.029 2178.37 381.003ZM2139.98 313.339C2136.85 309.196 2143.33 305.477 2148.1 306.083C2148.28 306.103 2148.44 306.144 2148.62 306.164C2149.03 306.245 2149.42 306.366 2149.78 306.528C2151.55 307.276 2152.76 308.872 2152.55 311.641C2152.53 312.086 2152.21 312.369 2151.85 312.51C2151.71 312.834 2151.58 313.157 2151.37 313.48C2148.78 317.462 2142.76 317.017 2139.98 313.339ZM2132.12 341.33C2131.78 341.249 2131.46 341.068 2131.3 340.704C2128.62 334.499 2125.19 327.244 2132.17 321.989C2137.19 318.21 2144.73 317.118 2150.42 320.594C2161.67 327.486 2158.78 345.271 2143.96 346.423C2138.78 346.827 2134.62 344.604 2132.12 341.33ZM2137.98 359.56C2139.64 354.77 2145.76 351.84 2151.19 352.022C2155.89 352.163 2159.12 354.406 2160.3 357.822C2160.33 357.842 2160.35 357.862 2160.35 357.883C2164.37 364.572 2158.23 371.949 2149.96 371.989C2143.35 372.01 2135.8 365.886 2137.98 359.56ZM2112.48 368.109C2112.53 364.875 2115.35 362.652 2118.98 363.036C2121.6 363.319 2123.44 364.815 2124.26 366.755C2124.6 366.816 2124.89 367.038 2124.96 367.442C2125.53 370.736 2123.58 373.93 2119.51 374.031C2115.73 374.112 2112.44 371.565 2112.48 368.109ZM2154.98 384.581C2155.76 381.67 2159.08 379.912 2162.35 380.68C2164.17 381.125 2165.39 382.115 2166.01 383.388C2166.26 383.55 2166.44 383.792 2166.48 384.136C2166.53 384.48 2166.51 384.843 2166.48 385.187C2166.53 385.914 2166.42 386.682 2166.17 387.45C2166.05 387.794 2165.78 387.996 2165.48 388.077C2164.44 389.694 2162.64 390.906 2160.35 391.007C2156.39 391.189 2154.14 387.814 2154.98 384.581Z" fill="#3185FC"/>
<path fill-rule="evenodd" clip-rule="evenodd" d="M2545.17 8.15108C2570.34 5.50907 2600.79 5.5091 2599.46 38.6038C2599.46 53.1647 2595.48 59.7995 2580.92 66.4145C2576.95 69.0565 2570.34 66.4145 2565.03 69.0565C2558.42 73.0294 2558.42 79.6444 2553.11 83.6174C2534.58 99.5092 2497.49 99.5092 2500.13 65.0835C2501.46 46.5497 2517.36 46.5497 2526.61 34.6309C2533.25 24.0429 2527.94 8.15108 2545.17 8.15108Z" fill="#4B43E2"/>
<path fill-rule="evenodd" clip-rule="evenodd" d="M2500.09 65.9975C2505.79 66.2757 2511.75 63.9713 2513.96 58.4688C2515.81 53.8999 2515.05 49.1919 2512.29 46.0533C2517.14 42.8153 2522.52 39.8753 2526.61 34.6112C2532.87 24.5993 2528.5 9.83983 2542.56 8.27051C2542.86 10.9721 2543.56 13.5943 2545.23 15.839C2547.31 18.6399 2551.82 20.388 2555.24 19.3749C2560.44 17.8255 2562.27 12.303 2562.27 7.07861C2575.44 7.09848 2587.84 9.58153 2594.47 18.6399C2591.05 20.8647 2588.93 24.5397 2590.24 28.9895C2591.63 33.6577 2595.17 35.2667 2599.48 35.664C2599.5 36.6175 2599.5 37.571 2599.46 38.5841C2599.46 53.145 2595.48 59.7798 2580.92 66.3948C2579.45 67.3682 2577.63 67.6264 2575.62 67.686C2574.71 63.9316 2573.08 59.5216 2569.68 57.7735C2565.05 55.3897 2560.32 57.2173 2556.39 60.1175C2547.91 66.3749 2550.49 74.4003 2556.13 80.4193C2555.32 81.5913 2554.36 82.6641 2553.11 83.5977C2534.74 99.3902 2498.19 99.5094 2500.09 65.9975ZM2576.41 53.9793C2579.2 58.0913 2586.64 59.4819 2589.8 54.9726C2590.64 53.8005 2590.99 52.3902 2590.96 51.0195C2591.97 47.8809 2588.47 43.6894 2584.94 43.1332C2579.61 42.279 2572.78 48.596 2576.41 53.9793ZM2572.54 40.0144C2578.1 41.6234 2585.51 38.5444 2586.21 32.2274C2586.72 27.5592 2584.62 23.626 2581.1 21.9573C2577.65 19.1762 2571.51 20.2887 2568.89 23.9041C2565.41 28.6915 2566.06 38.1471 2572.54 40.0144ZM2550.27 37.432C2552.18 39.5774 2555.72 40.4514 2558.22 38.7431C2560.34 37.2731 2561.16 35.4058 2561.06 33.5981C2561.3 31.2143 2560.24 28.8901 2557.64 27.6784C2556.55 27.1818 2555.3 26.9036 2554.09 26.9235C2553.75 26.8838 2553.39 26.8639 2553.05 26.8639C2552.72 26.8639 2552.48 27.0228 2552.32 27.2215C2550.89 27.6585 2549.68 28.6319 2549.14 30.3005C2548.4 32.5254 2548.68 35.664 2550.27 37.432ZM2543.02 47.2253C2543.2 44.9409 2542.19 43.2921 2540.6 42.2591C2540.56 42.0207 2540.4 41.8022 2540.1 41.6433C2536.45 39.8158 2531.92 40.8288 2530.63 45.0998C2529.47 48.9337 2531.82 52.4895 2535.79 52.9464C2539.37 53.3834 2542.72 50.9003 2543.02 47.2253ZM2521.25 84.8095C2528.74 87.5508 2536.57 82.9422 2537.74 75.0559C2538.45 70.3281 2535.67 67.0901 2531.96 65.6598C2527.03 62.0444 2520.14 64.3885 2516.36 68.9375C2511.77 74.4202 2514.75 82.4456 2521.25 84.8095Z" fill="#3185FC"/>
<path fill-rule="evenodd" clip-rule="evenodd" d="M2645.17 108.151C2670.34 105.509 2700.79 105.509 2699.46 138.604C2699.46 153.165 2695.48 159.8 2680.92 166.415C2676.95 169.057 2670.34 166.414 2665.03 169.056C2658.42 173.029 2658.42 179.644 2653.11 183.617C2634.58 199.509 2597.49 199.509 2600.13 165.084C2601.46 146.55 2617.36 146.55 2626.61 134.631C2633.25 124.043 2627.94 108.151 2645.17 108.151Z" fill="#FF0081"/>
<path fill-rule="evenodd" clip-rule="evenodd" d="M2600.09 165.998C2605.79 166.276 2611.75 163.971 2613.96 158.469C2615.81 153.9 2615.05 149.192 2612.29 146.053C2617.14 142.815 2622.52 139.875 2626.61 134.611C2632.87 124.599 2628.5 109.84 2642.56 108.271C2642.86 110.972 2643.56 113.594 2645.23 115.839C2647.31 118.64 2651.82 120.388 2655.24 119.375C2660.44 117.825 2662.27 112.303 2662.27 107.079C2675.44 107.098 2687.84 109.582 2694.47 118.64C2691.05 120.865 2688.93 124.54 2690.24 128.989C2691.63 133.658 2695.17 135.267 2699.48 135.664C2699.5 136.618 2699.5 137.571 2699.46 138.584C2699.46 153.145 2695.48 159.78 2680.92 166.395C2679.45 167.368 2677.63 167.626 2675.62 167.686C2674.71 163.932 2673.08 159.522 2669.68 157.773C2665.05 155.39 2660.32 157.217 2656.39 160.118C2647.91 166.375 2650.49 174.4 2656.13 180.419C2655.32 181.591 2654.36 182.664 2653.11 183.598C2634.74 199.39 2598.19 199.509 2600.09 165.998ZM2676.41 153.979C2679.2 158.091 2686.64 159.482 2689.8 154.973C2690.64 153.801 2690.99 152.39 2690.96 151.019C2691.97 147.881 2688.47 143.689 2684.94 143.133C2679.61 142.279 2672.78 148.596 2676.41 153.979ZM2672.54 140.014C2678.1 141.623 2685.51 138.544 2686.21 132.227C2686.72 127.559 2684.62 123.626 2681.1 121.957C2677.65 119.176 2671.51 120.289 2668.89 123.904C2665.41 128.691 2666.06 138.147 2672.54 140.014ZM2650.27 137.432C2652.18 139.577 2655.72 140.451 2658.22 138.743C2660.34 137.273 2661.16 135.406 2661.06 133.598C2661.3 131.214 2660.24 128.89 2657.64 127.678C2656.55 127.182 2655.3 126.904 2654.09 126.924C2653.75 126.884 2653.39 126.864 2653.05 126.864C2652.72 126.864 2652.48 127.023 2652.32 127.221C2650.89 127.658 2649.68 128.632 2649.14 130.301C2648.4 132.525 2648.68 135.664 2650.27 137.432ZM2643.02 147.225C2643.2 144.941 2642.19 143.292 2640.6 142.259C2640.56 142.021 2640.4 141.802 2640.1 141.643C2636.45 139.816 2631.92 140.829 2630.63 145.1C2629.47 148.934 2631.82 152.489 2635.79 152.946C2639.37 153.383 2642.72 150.9 2643.02 147.225ZM2621.25 184.809C2628.74 187.551 2636.57 182.942 2637.74 175.056C2638.45 170.328 2635.67 167.09 2631.96 165.66C2627.03 162.044 2620.14 164.388 2616.36 168.937C2611.77 174.42 2614.75 182.446 2621.25 184.809Z" fill="#FF6AAD"/>
<path fill-rule="evenodd" clip-rule="evenodd" d="M2191.42 445.213C2194.04 470.129 2194.04 500.276 2161.28 498.958C2146.86 498.958 2140.29 495.025 2133.74 480.611C2131.13 476.678 2133.74 470.129 2131.13 464.879C2127.2 458.33 2120.65 458.33 2116.71 453.079C2100.98 434.732 2100.98 398.017 2135.06 400.633C2153.41 401.95 2153.41 417.682 2165.21 426.846C2175.69 433.414 2191.42 428.164 2191.42 445.213Z" fill="#4B43E2"/>
<path fill-rule="evenodd" clip-rule="evenodd" d="M2134.16 400.593C2133.88 406.237 2136.16 412.136 2141.61 414.319C2146.13 416.148 2150.8 415.401 2153.9 412.667C2157.11 417.465 2160.02 422.795 2165.23 426.846C2175.14 433.04 2189.75 428.714 2191.31 442.637C2188.63 442.932 2186.04 443.62 2183.81 445.272C2181.04 447.337 2179.31 451.801 2180.31 455.183C2181.85 460.335 2187.31 462.145 2192.49 462.145C2192.47 475.183 2190.01 487.454 2181.04 494.022C2178.84 490.639 2175.2 488.535 2170.79 489.833C2166.17 491.21 2164.58 494.71 2164.19 498.977C2163.24 498.997 2162.3 498.997 2161.3 498.958C2146.88 498.958 2140.31 495.025 2133.77 480.61C2132.8 479.155 2132.55 477.346 2132.49 475.36C2136.2 474.455 2140.57 472.842 2142.3 469.48C2144.66 464.898 2142.85 460.217 2139.98 456.324C2133.78 447.927 2125.84 450.483 2119.88 456.068C2118.72 455.262 2117.66 454.318 2116.74 453.079C2101.1 434.889 2100.98 398.705 2134.16 400.593ZM2146.06 476.146C2141.99 478.899 2140.61 486.274 2145.07 489.4C2146.23 490.226 2147.63 490.58 2148.99 490.541C2152.09 491.544 2156.24 488.083 2156.79 484.582C2157.64 479.312 2151.39 472.547 2146.06 476.146ZM2159.88 472.311C2158.29 477.818 2161.34 485.153 2167.59 485.841C2172.21 486.352 2176.1 484.268 2177.76 480.787C2180.51 477.365 2179.41 471.289 2175.83 468.693C2171.09 465.252 2161.73 465.901 2159.88 472.311ZM2162.44 450.267C2160.31 452.155 2159.45 455.655 2161.14 458.133C2162.59 460.237 2164.44 461.043 2166.23 460.945C2168.59 461.181 2170.89 460.139 2172.09 457.563C2172.58 456.481 2172.86 455.242 2172.84 454.043C2172.88 453.708 2172.9 453.354 2172.9 453.02C2172.9 452.686 2172.74 452.45 2172.54 452.292C2172.11 450.876 2171.15 449.677 2169.5 449.146C2167.29 448.418 2164.19 448.694 2162.44 450.267ZM2152.74 443.089C2155 443.266 2156.64 442.263 2157.66 440.69C2157.89 440.651 2158.11 440.493 2158.27 440.198C2160.08 436.58 2159.07 432.096 2154.85 430.818C2151.05 429.677 2147.53 431.998 2147.08 435.931C2146.65 439.471 2149.1 442.794 2152.74 443.089ZM2115.54 421.536C2112.82 428.95 2117.38 436.698 2125.19 437.858C2129.87 438.566 2133.08 435.813 2134.49 432.136C2138.07 427.259 2135.75 420.435 2131.25 416.698C2125.82 412.156 2117.88 415.105 2115.54 421.536Z" fill="#3185FC"/>
<g clip-path="url(#clip5)">
<path fill-rule="evenodd" clip-rule="evenodd" d="M2237.65 102.669C2226.37 98.631 2213.11 100.202 2207.55 112.146C2199.28 128.166 2213.52 134.536 2216.67 147.052C2222.73 165.678 2199.33 199.06 2233.38 199.862C2253.43 200.719 2253.73 185.643 2264.51 176.842C2274.56 166.525 2290.83 167.281 2294.92 152.288C2298.69 134.658 2287.41 130.62 2274.29 124.65C2263.43 119.491 2248.2 105.174 2237.65 102.669Z" fill="#FF0081"/>
<path fill-rule="evenodd" clip-rule="evenodd" d="M2294.92 152.272C2298.17 137.072 2290.25 131.976 2279.59 127.043C2278.24 128.894 2276.52 130.42 2274.25 131.164C2271.22 132.151 2267.74 131.209 2265.4 129.118C2261.57 125.696 2260.72 121.157 2262.29 117.201C2253.77 111.249 2244.68 104.35 2237.65 102.669C2229.47 99.7389 2220.25 99.7989 2213.67 104.581C2215.43 107.202 2216.04 110.344 2214.1 113.522C2212.16 116.683 2208.96 117.28 2205.67 116.881C2202.15 129.574 2213.85 135.85 2216.67 147.052C2216.77 147.315 2216.82 147.599 2216.89 147.872C2224.06 147.249 2233 150.202 2231.7 158.033C2230.34 166.258 2223.33 167.83 2216.53 166.363C2213.88 182.668 2209.45 199.304 2233.36 199.856C2253.41 200.713 2253.71 185.637 2264.5 176.836C2265.82 175.47 2267.27 174.3 2268.77 173.26C2266.65 168.041 2266.32 162.191 2272.11 159.573C2277.01 157.341 2283.35 159.385 2286.45 163.683C2290.32 161.082 2293.43 157.734 2294.92 152.272ZM2228.93 132.099C2223.91 131.082 2220.86 125.49 2221.54 120.648C2222.06 116.961 2224.2 114.71 2227.12 114.066C2227.21 113.927 2227.34 113.783 2227.56 113.709C2233.61 111.679 2239.03 116.829 2239.61 122.77C2240.21 129.135 2235.26 133.379 2228.93 132.099ZM2241.69 150.583C2241.87 150.417 2242.06 150.354 2242.25 150.251C2242.64 149.841 2243.12 149.519 2243.72 149.335C2245.12 148.887 2246.76 149.322 2247.9 150.242C2250.68 152.491 2250.54 156.729 2247.14 158.397C2244.18 159.843 2241.46 157.087 2240.89 154.319C2240.86 154.137 2240.83 153.939 2240.82 153.763C2240.81 153.701 2240.81 153.644 2240.79 153.581C2240.69 152.465 2240.87 151.332 2241.69 150.583ZM2226.95 195.073C2223.92 196.133 2221.56 194.019 2220.42 191.255C2220.19 191.153 2219.97 190.961 2219.89 190.648C2219.35 188.634 2218.91 185.778 2220.47 184.062C2223.02 181.255 2227.7 182.626 2229.98 185.168C2232.99 188.525 2231.08 193.61 2226.95 195.073ZM2252.8 183.811C2249.04 188.1 2241.5 188.516 2237.45 184.219C2234.25 180.812 2233.46 175.556 2235.42 171.344C2237.24 167.456 2241 166.413 2244.76 167.056C2244.94 166.987 2245.14 166.963 2245.37 167.048C2248.57 168.192 2253.01 169.479 2254.27 173.1C2255.46 176.504 2255.3 180.946 2252.8 183.811ZM2268.77 149.399C2265.33 153.464 2257.88 152.904 2254.78 148.662C2252.49 145.509 2252.21 140.758 2254.81 137.663C2257.04 134.989 2260.01 134.533 2262.95 135.434C2263.08 135.443 2263.2 135.485 2263.33 135.55C2263.36 135.562 2263.41 135.597 2263.46 135.616C2264.17 135.87 2264.89 136.187 2265.59 136.588C2265.76 136.688 2265.85 136.814 2265.92 136.952C2267.85 138.06 2269.75 139.446 2270.42 141.469C2271.32 144.279 2270.68 147.142 2268.77 149.399ZM2290.81 149.681C2289.27 150.21 2287.14 150.454 2285.79 149.285C2284.74 148.378 2284.19 147.042 2284.32 145.648C2284.63 142.381 2287.57 140.47 2290.66 141.748C2291.06 141.91 2291.22 142.253 2291.22 142.575C2291.37 142.703 2291.53 142.837 2291.65 142.976C2293.46 145.009 2293.93 148.595 2290.81 149.681Z" fill="#FF6AAD"/>
</g>
<g clip-path="url(#clip6)">
<path fill-rule="evenodd" clip-rule="evenodd" d="M2294.61 539.974C2300.57 529.659 2301.39 516.403 2290.7 508.846C2276.5 497.907 2267.74 510.703 2254.93 511.558C2235.64 514.171 2207.15 485.35 2200.31 518.514C2195.9 537.971 2210.6 540.949 2217.29 553.059C2225.59 564.72 2221.96 580.499 2235.9 587.164C2252.47 593.991 2258.43 583.677 2266.6 571.901C2273.58 562.198 2290.29 549.847 2294.61 539.974Z" fill="#FF0081"/>
<path fill-rule="evenodd" clip-rule="evenodd" d="M2235.91 587.173C2250.2 593.052 2256.6 586.208 2263.32 576.665C2261.75 575.016 2260.56 573.053 2260.24 570.701C2259.81 567.568 2261.35 564.333 2263.81 562.414C2267.84 559.276 2272.43 559.247 2276.02 561.485C2283.36 554.215 2291.72 546.55 2294.61 539.974C2298.94 532.489 2300.52 523.464 2297.01 516.18C2294.13 517.428 2290.95 517.467 2288.19 515.006C2285.44 512.553 2285.42 509.308 2286.4 506.16C2274.61 500.466 2266.39 510.793 2254.93 511.558C2254.66 511.606 2254.37 511.606 2254.09 511.629C2253.43 518.75 2248.95 526.969 2241.52 524.308C2233.72 521.515 2233.43 514.378 2236.07 507.987C2220.59 502.495 2205.11 495.204 2200.32 518.498C2195.91 537.956 2210.61 540.934 2217.3 553.044C2218.4 554.586 2219.28 556.212 2220.03 557.861C2225.52 556.717 2231.3 557.436 2232.83 563.558C2234.14 568.748 2231.01 574.591 2226.26 576.857C2228.12 581.104 2230.84 584.737 2235.91 587.173ZM2267.38 526.208C2269.27 521.483 2275.28 519.491 2279.89 521.021C2283.41 522.184 2285.23 524.678 2285.34 527.649C2285.46 527.76 2285.58 527.911 2285.61 528.137C2286.52 534.414 2280.52 538.804 2274.6 538.317C2268.27 537.774 2265 532.175 2267.38 526.208ZM2247.03 535.408C2247.16 535.607 2247.19 535.808 2247.26 536.012C2247.59 536.471 2247.82 536.995 2247.89 537.615C2248.08 539.064 2247.36 540.589 2246.26 541.54C2243.57 543.86 2239.45 542.966 2238.42 539.343C2237.53 536.191 2240.71 534.026 2243.52 533.957C2243.7 533.96 2243.9 533.971 2244.07 533.99C2244.14 533.985 2244.19 533.996 2244.26 533.992C2245.37 534.096 2246.44 534.471 2247.03 535.408ZM2206.13 513.075C2205.64 509.921 2208.12 507.996 2211.03 507.366C2211.17 507.158 2211.4 506.979 2211.72 506.958C2213.78 506.79 2216.66 506.861 2218.06 508.7C2220.35 511.694 2218.18 516.026 2215.28 517.8C2211.46 520.152 2206.83 517.374 2206.13 513.075ZM2212.55 540.367C2209.03 535.92 2209.96 528.479 2214.88 525.28C2218.79 522.75 2224.07 522.913 2227.84 525.584C2231.32 528.048 2231.67 531.919 2230.37 535.48C2230.41 535.666 2230.4 535.865 2230.27 536.081C2228.58 539.004 2226.53 543.12 2222.77 543.709C2219.23 544.263 2214.91 543.317 2212.55 540.367ZM2243.37 562.1C2240.01 558.013 2241.88 550.826 2246.58 548.55C2250.07 546.875 2254.77 547.443 2257.34 550.532C2259.55 553.194 2259.47 556.178 2258.07 558.893C2258.04 559.019 2257.97 559.127 2257.89 559.242C2257.87 559.273 2257.83 559.311 2257.8 559.357C2257.43 560.006 2256.99 560.66 2256.47 561.27C2256.34 561.422 2256.2 561.486 2256.06 561.525C2254.63 563.216 2252.93 564.836 2250.84 565.13C2247.93 565.512 2245.24 564.374 2243.37 562.1ZM2239.18 583.615C2238.94 582.011 2239.08 579.885 2240.46 578.767C2241.53 577.903 2242.94 577.601 2244.28 577.982C2247.42 578.867 2248.76 582.078 2246.97 584.874C2246.74 585.236 2246.37 585.335 2246.06 585.277C2245.91 585.396 2245.75 585.53 2245.59 585.625C2243.28 587.033 2239.69 586.857 2239.18 583.615Z" fill="#FF6AAD"/>
</g>
<circle opacity="0.2" cx="2425" cy="325" r="25" fill="#FAA629"/>
<circle cx="2425" cy="325" r="16" fill="#FAA629"/>
<g clip-path="url(#clip7)">
<path fill-rule="evenodd" clip-rule="evenodd" d="M2104 21.5557C2106.35 9.31322 2114.78 -1.74281 2128.42 -0.397766C2147.15 0.668974 2145.32 16.7991 2154.87 26.2457C2168.35 41.5295 2210.65 38.2341 2193.34 69.1677C2183.5 87.5839 2169.83 79.8769 2156.24 84.8789C2141.68 88.4197 2133.75 103.397 2118.15 99.1254C2100.35 93.1764 2102.71 80.9339 2104.3 66.0152C2105.43 53.556 2100.66 32.3335 2104 21.5557Z" fill="#4B43E2"/>
<path fill-rule="evenodd" clip-rule="evenodd" d="M2118.13 99.1224C2102.79 93.9879 2102.42 84.1912 2103.64 72.0354C2106.01 71.8061 2108.29 71.0645 2110.16 69.4249C2112.65 67.2376 2113.64 63.6228 2113.01 60.4179C2111.97 55.1751 2108.36 52.0067 2103.98 51.3187C2103.15 40.5401 2101.78 28.7437 2104 21.5562C2105.7 12.6726 2110.64 4.44658 2118.4 1.08513C2119.82 4.04146 2122.31 6.25195 2126.19 6.19667C2130.04 6.13788 2132.28 3.57892 2133.66 0.418921C2146.89 3.98837 2146.33 17.7915 2154.87 26.2461C2155.05 26.4718 2155.28 26.6677 2155.49 26.8785C2151.14 32.9703 2149.05 42.5425 2156.75 45.5254C2164.84 48.659 2169.96 43.2093 2172.25 36.3401C2188.26 42.594 2205.51 47.4299 2193.35 69.1498C2183.5 87.566 2169.83 79.859 2156.24 84.8611C2154.32 85.3284 2152.5 86.0074 2150.78 86.7991C2147.22 82.1387 2142.15 78.7482 2136.75 82.5439C2132.15 85.7534 2130.63 92.5209 2132.84 97.5704C2128.46 99.6603 2123.82 100.671 2118.13 99.1224ZM2134.98 29.316C2136.73 24.2838 2133.33 18.5884 2128.63 16.6388C2125.05 15.1523 2121.9 15.8794 2119.78 18.1552C2119.61 18.1603 2119.41 18.1987 2119.23 18.3541C2114.21 22.6998 2115.96 30.2858 2120.97 33.9515C2126.36 37.8596 2132.78 35.6678 2134.98 29.316ZM2144.79 50.5355C2144.55 50.6035 2144.39 50.7442 2144.2 50.8594C2143.62 50.9963 2143.08 51.2539 2142.6 51.6941C2141.45 52.7118 2140.98 54.409 2141.2 55.9171C2141.74 59.5992 2145.61 61.7135 2148.91 59.5486C2151.77 57.6623 2150.74 53.7718 2148.56 51.7931C2148.42 51.6698 2148.25 51.5429 2148.1 51.4379C2148.05 51.3907 2148 51.3618 2147.95 51.3146C2147 50.6374 2145.9 50.1962 2144.79 50.5355ZM2192.46 60.8712C2195.01 58.7163 2194.36 55.4895 2192.49 52.9988C2192.52 52.7383 2192.46 52.4419 2192.23 52.2058C2190.71 50.6576 2188.38 48.7462 2186.02 49.243C2182.15 50.0422 2180.9 54.9601 2181.98 58.3445C2183.39 62.8218 2188.96 63.7965 2192.46 60.8712ZM2168.68 78.0768C2174.52 76.9712 2178.88 70.4432 2177.17 64.5392C2175.81 59.8635 2171.52 56.3747 2166.71 55.9067C2162.27 55.4721 2159.34 58.2972 2157.92 62.0036C2157.77 62.1258 2157.64 62.2919 2157.59 62.5488C2156.93 66.0178 2155.73 70.6788 2158.31 73.7242C2160.73 76.5876 2164.79 78.7955 2168.68 78.0768ZM2129.4 74.1668C2134.86 73.2367 2138.3 66.2659 2136.14 61.2452C2134.53 57.5283 2130.42 54.76 2126.27 55.448C2122.69 56.0358 2120.71 58.4533 2119.97 61.5639C2119.9 61.6853 2119.88 61.8138 2119.87 61.9641C2119.86 62.0009 2119.87 62.0594 2119.86 62.1145C2119.71 62.8854 2119.61 63.7035 2119.6 64.5392C2119.6 64.7481 2119.67 64.8941 2119.76 65.0253C2119.73 67.3417 2119.96 69.7842 2121.42 71.4538C2123.46 73.7488 2126.36 74.6877 2129.4 74.1668ZM2117.98 94.0699C2119.27 92.9666 2120.62 91.1886 2120.29 89.3553C2120.03 87.9356 2119.13 86.734 2117.81 86.1186C2114.71 84.6683 2111.45 86.2869 2110.96 89.7324C2110.89 90.1764 2111.11 90.5043 2111.4 90.6741C2111.44 90.8717 2111.47 91.0876 2111.53 91.2704C2112.4 93.9676 2115.36 96.2876 2117.98 94.0699Z" fill="#3185FC"/>
</g>
<g clip-path="url(#clip8)">
<path fill-rule="evenodd" clip-rule="evenodd" d="M2303.84 370.899C2321.47 349.525 2345.6 295.005 2357.87 301.772C2365.68 304.706 2358.93 322.491 2352.77 331.264C2364.39 315.557 2374.43 294.581 2385.23 303.155C2391.85 309.37 2376.74 328.365 2368.96 335.728C2375.7 331.702 2386.29 319.083 2392.29 324.755C2402.67 331.922 2357.04 369.306 2336.54 388.854" fill="#964DB6"/>
<path fill-rule="evenodd" clip-rule="evenodd" d="M2316.2 362.958C2289.35 367.811 2303.06 409.454 2327.53 396.885C2350.58 384.464 2336.97 355.653 2314.78 363.13" fill="#D66CDF"/>
<path fill-rule="evenodd" clip-rule="evenodd" d="M2316.24 373.376C2301.2 376.084 2308.87 399.413 2322.58 392.37C2335.48 385.425 2327.88 369.276 2315.45 373.472" fill="#E6A7EC"/>
<path d="M2317.87 392.001C2324.93 391.148 2323.45 378.975 2316.4 379.829C2309.34 380.682 2310.81 392.855 2317.87 392.001Z" fill="white"/>
</g>
<path fill-rule="evenodd" clip-rule="evenodd" d="M2348.77 402.621C2287.82 402.621 2287.58 496.992 2346.43 497.97C2416.75 499.114 2412.84 405.934 2348.77 402.621Z" fill="#D9D9D9"/>
<path fill-rule="evenodd" clip-rule="evenodd" d="M2317.28 462.5C2327.27 458.019 2330.53 468.817 2335.66 474.728C2339.33 478.948 2344.76 483.358 2350.65 483.524C2354.7 483.62 2358.52 482.142 2360.74 478.519C2363.57 473.894 2363.95 465.599 2355.61 466.362C2350.82 466.791 2341.98 464.86 2346.24 458.328C2348.53 454.848 2351.94 451.964 2353.7 448.174C2357.11 440.88 2350.72 432.465 2342.74 433.252C2335.71 433.943 2335.3 439.855 2329.99 443.025C2327.79 444.336 2324.43 445.766 2321.93 444.264C2312.49 438.591 2325.19 428.317 2325.24 421.476C2325.27 416.375 2322.52 414.015 2318.76 413.038C2301.33 427.984 2298.04 455.921 2308.68 475.682C2309.82 469.937 2312.2 464.788 2317.28 462.5Z" fill="#EEEEEE"/>
<path fill-rule="evenodd" clip-rule="evenodd" d="M2318.59 487.982C2323.55 492.225 2329.68 495.372 2336.95 496.897C2336.75 492.344 2335.04 487.792 2331.61 484.883C2326.79 480.807 2320.31 482.738 2318.59 487.982Z" fill="#EEEEEE"/>
<path fill-rule="evenodd" clip-rule="evenodd" d="M2377.61 434.539C2373.25 435.564 2369.6 438.353 2368.79 443.073C2367.81 448.794 2370.6 451.797 2375.73 453.49C2379.38 454.682 2383.95 456.279 2386.29 459.521C2390.91 465.98 2381.59 470.843 2377.87 474.824C2372.22 480.879 2374.42 485.456 2378.54 489.627C2397.92 476.874 2402.5 451.893 2393.58 431.917C2389.05 434.11 2383.29 433.204 2377.61 434.539Z" fill="#EEEEEE"/>
<path fill-rule="evenodd" clip-rule="evenodd" d="M2343.55 410.582C2341.76 417.328 2346.46 424.05 2353.3 419.712C2356.95 417.4 2360.52 414.372 2364.76 416.971C2365.62 417.495 2366.05 418.639 2366.43 419.497C2366.77 420.26 2367.08 421.047 2367.36 421.81C2371.25 424.074 2374.11 423.454 2375.9 419.879C2377.09 417.137 2376.83 414.396 2376.68 411.559C2369.25 406.506 2359.9 403.193 2348.75 402.597C2348.03 402.597 2347.34 402.644 2346.62 402.668C2345.53 405.314 2344.26 407.865 2343.55 410.582Z" fill="#EEEEEE"/>
<circle cx="2005.01" cy="79.1328" r="74.9888" fill="#FECD81"/>
<mask id="mask0" mask-type="alpha" maskUnits="userSpaceOnUse" x="1930" y="4" width="150" height="151">
<circle cx="2004.99" cy="79.1294" r="74.9888" fill="#F5F9E9"/>
</mask>
<g mask="url(#mask0)">
<path d="M2065.83 16.2659C2029.9 20.0927 1986.56 6.96472 1969.39 -0.0776367L1929.53 26.0322C1938.63 22.7768 1964.09 18.5873 1991.4 30.3866C2018.7 42.1858 2054.24 41.9067 2080.45 38.1198L2065.83 16.2659Z" fill="#FAA629"/>
<path d="M1972.49 63.309C1952.35 62.603 1935.39 54.1897 1929.43 50.0713L1923.91 79.8562C1931.33 68.56 1957.03 72.4371 1972.49 75.8849C2044.69 91.9907 2068.1 91.9907 2084.66 86.9163C2093.86 77.5028 2106.74 61.8087 2084.66 54.9251C2057.06 46.3206 1997.66 64.1915 1972.49 63.309Z" fill="#FAA629"/>
<ellipse cx="1973.63" cy="125.748" rx="14.4227" ry="8.56351" transform="rotate(-4.84665 1973.63 125.748)" fill="#FAA629"/>
<path d="M1981.38 181.669C1985.67 172.935 1990.23 97.7215 2069.02 131.74C2057.69 147.341 2026.69 179.756 1981.38 181.669Z" fill="#FAA629"/>
<path fill-rule="evenodd" clip-rule="evenodd" d="M2038.26 50.5398C2018.58 50.5398 2009.21 52.8832 1988.58 52.8832C1973.12 52.8832 1962.34 52.8832 1944.76 45.067C1937.07 42.8086 1930.9 32.5279 1924.38 29.3257C1927.93 26.9662 1931.97 24.7978 1936.5 22.8877C1951.96 30.1909 1970.31 34.3704 1993.74 38.5885C2011.41 41.7688 2050.62 47.1568 2078.1 45.067C2079.73 48.2354 2080.07 45.3141 2079.97 48.6399C2066.36 49.2129 2053.03 48.6399 2038.26 50.5398Z" fill="white"/>
<path fill-rule="evenodd" clip-rule="evenodd" d="M2031.21 99.0718C2009.56 95.2286 1999.77 90.4789 1977.08 86.4527C1960.07 83.433 1948.22 81.3284 1927.16 87.6354C1918.19 88.9472 1909.13 100.552 1901.25 103.267C1904.64 106.901 1908.6 110.392 1913.16 113.656C1931.78 107.575 1952.88 105.95 1979.59 105.269C1999.73 104.756 2044.05 105.698 2073.82 113.668C2076.31 110.039 2076.03 113.744 2076.66 109.581C2061.82 106.21 2047.03 104.321 2031.21 99.0718Z" fill="white"/>
<path d="M2045.75 142.788C1978.08 128.31 1951.8 80.8059 1937.2 46.874H1924.05V165.862H2045.75V142.788Z" fill="#F24333" fill-opacity="0.15"/>
</g>
<path d="M2021.54 0.294831L2019.59 6.0088L2038.44 12.4478L2040.39 6.73383C2033.05 3.78179 2028.92 2.38175 2021.54 0.294831Z" fill="#FECD81"/>
<path d="M1969.8 151.764L1971.76 146.027L1990.61 152.466L1988.65 158.203C1981.03 156.046 1976.91 154.631 1969.8 151.764Z" fill="#FCB876"/>
<circle cx="2032.17" cy="66.0063" r="3.74944" fill="#221E38"/>
<circle cx="2067.79" cy="66.0063" r="3.74944" fill="#221E38"/>
<path d="M2043.42 75.3799H2058.42C2057.26 84.5147 2046.02 86.2063 2043.42 75.3799Z" fill="#221E38"/>
</g>
<defs>
<clipPath id="clip0">
<rect width="3014" height="1485" fill="white"/>
</clipPath>
<clipPath id="clip1">
<rect width="200" height="100" fill="white" transform="translate(2300 200)"/>
</clipPath>
<clipPath id="clip2">
<rect width="200" height="100" fill="white" transform="translate(2500 200)"/>
</clipPath>
<clipPath id="clip3">
<rect width="100" height="100" fill="white" transform="translate(2300 500)"/>
</clipPath>
<clipPath id="clip4">
<rect width="100" height="100" fill="white" transform="translate(2200 200) rotate(90)"/>
</clipPath>
<clipPath id="clip5">
<rect width="100" height="100" fill="white" transform="translate(2300 100) rotate(90)"/>
</clipPath>
<clipPath id="clip6">
<rect width="100" height="100" fill="white" transform="translate(2300 500) rotate(90)"/>
</clipPath>
<clipPath id="clip7">
<rect width="100" height="100" fill="white" transform="translate(2200) rotate(90)"/>
</clipPath>
<clipPath id="clip8">
<rect width="100" height="100" fill="white" transform="translate(2300 300)"/>
</clipPath>
</defs>
</svg>
